<svg width="18" height="18" viewBox="0 0 18 18" fill="none" xmlns="http://www.w3.org/2000/svg">
<path d="M16.7222 1.61084H1.2782C0.810195 1.61084 0.450195 1.97084 0.450195 2.43884V15.5608C0.450195 16.0108 0.810195 16.3888 1.2782 16.3888H16.7222C17.1722 16.3888 17.5502 16.0108 17.5502 15.5608V2.43884C17.5502 1.97084 17.1902 1.61084 16.7222 1.61084ZM15.1022 2.56484C15.4982 2.56484 15.8402 2.88884 15.8402 3.30284C15.8402 3.71684 15.5162 4.04084 15.1022 4.04084C14.7062 4.04084 14.3642 3.71684 14.3642 3.30284C14.3642 2.88884 14.6882 2.56484 15.1022 2.56484ZM12.6002 2.56484C12.9962 2.56484 13.3382 2.88884 13.3382 3.30284C13.3382 3.71684 13.0142 4.04084 12.6002 4.04084C12.2042 4.04084 11.8622 3.71684 11.8622 3.30284C11.8622 2.88884 12.1862 2.56484 12.6002 2.56484ZM10.0982 2.56484C10.4942 2.56484 10.8362 2.88884 10.8362 3.30284C10.8362 3.71684 10.5122 4.04084 10.0982 4.04084C9.6842 4.04084 9.3602 3.69884 9.3602 3.28484C9.3602 2.87084 9.6842 2.56484 10.0982 2.56484ZM16.2902 15.1108H1.7102V4.95884H16.2902V15.1108Z" fill="#145BFF"/>
</svg>
