<svg width="18" height="18" viewBox="0 0 18 18" fill="none" xmlns="http://www.w3.org/2000/svg">
<g clip-path="url(#clip0_142_552)">
<path d="M15.344 3.45117L12.1426 6.65258C12.5404 7.18481 12.7956 7.80994 12.8837 8.46856C12.947 8.45046 13.0122 8.43996 13.078 8.43728H17.2968C17.3348 8.44074 17.3726 8.44683 17.4098 8.45551C17.2931 6.60495 16.5667 4.84518 15.344 3.45117Z" fill="#145BFF"/>
<path d="M0.562506 9C0.564318 11.142 1.38105 13.2032 2.84695 14.765C4.31286 16.3269 6.3181 17.2726 8.45573 17.4101C8.44707 17.3728 8.44098 17.335 8.43751 17.2969V13.0781C8.44024 13.0124 8.45074 12.9471 8.46878 12.8838C7.87252 12.8058 7.30214 12.5919 6.80162 12.2585C6.3011 11.9252 5.88381 11.4814 5.58192 10.9613C5.28004 10.4412 5.10162 9.85878 5.06042 9.25885C5.01922 8.65891 5.11634 8.05752 5.3443 7.50105C5.57226 6.94458 5.92496 6.4479 6.37522 6.04928C6.82548 5.65067 7.36126 5.36078 7.94126 5.20196C8.52126 5.04315 9.12998 5.01964 9.7205 5.13327C10.311 5.24689 10.8676 5.4946 11.3472 5.85731L14.5486 2.6559C13.3303 1.58668 11.8295 0.891497 10.2261 0.65369C8.6227 0.415883 6.98473 0.645543 5.50855 1.31514C4.03237 1.98474 2.78062 3.06585 1.90335 4.42889C1.02609 5.79193 0.560538 7.37905 0.562506 9Z" fill="#145BFF"/>
<path d="M17.2968 9.56252H13.078C13.0123 9.55985 12.947 9.54935 12.8838 9.53125C12.7676 10.3794 12.377 11.1663 11.7717 11.7717C11.1663 12.377 10.3794 12.7676 9.53125 12.8837C9.54926 12.9471 9.55972 13.0123 9.56241 13.0781V17.2969C9.55894 17.335 9.55285 17.3728 9.54419 17.4101C11.5868 17.2776 13.5115 16.4064 14.9589 14.959C16.4062 13.5116 17.2775 11.5869 17.4099 9.5443C17.3726 9.55298 17.3349 9.55907 17.2968 9.56252Z" fill="#145BFF"/>
</g>
<defs>
<clipPath id="clip0_142_552">
<rect width="18" height="18" fill="white"/>
</clipPath>
</defs>
</svg>
