<svg width="18" height="18" viewBox="0 0 18 18" fill="none" xmlns="http://www.w3.org/2000/svg">
<g clip-path="url(#clip0_142_558)">
<path d="M11.4525 1.50732C9.00341 1.50732 6.97279 3.25389 6.5166 5.56914C6.52729 5.56914 6.53685 5.56745 6.54754 5.56745C9.79204 5.56745 12.4319 8.20726 12.4319 11.4523C12.4319 11.4624 12.4302 11.4726 12.4302 11.4827C14.7454 11.0265 16.492 8.99589 16.492 6.54676C16.4925 3.76295 14.2369 1.50732 11.4525 1.50732Z" fill="#145BFF"/>
<path d="M6.54796 6.41113C3.76415 6.41113 1.50684 8.66788 1.50684 11.4523C1.50684 14.2361 3.76359 16.4934 6.54796 16.4934C9.33234 16.4934 11.5891 14.2366 11.5891 11.4523C11.5891 8.66788 9.33234 6.41113 6.54796 6.41113ZM7.05196 13.6173V13.8395C7.05196 14.1191 6.82527 14.3458 6.54571 14.3458C6.26615 14.3458 6.03946 14.1191 6.03946 13.8395V13.7529C5.79477 13.7416 5.55965 13.6443 5.38415 13.475C5.18784 13.2849 5.07984 13.0301 5.07984 12.7573C5.07984 12.4788 5.30484 12.2544 5.58384 12.2533H5.58609C5.85946 12.2533 6.08277 12.4726 6.09177 12.7443C6.2369 12.7387 7.17402 12.6858 7.18359 12.3106C7.18527 12.2566 7.05309 12.0873 6.43209 11.9461C5.36896 11.7043 4.85427 11.2261 4.90209 10.523C4.92796 10.1422 5.12877 9.55494 6.03946 9.28776V9.06445C6.03946 8.78488 6.26615 8.5582 6.54571 8.5582C6.82527 8.5582 7.05196 8.78488 7.05196 9.06445V9.15276C7.30171 9.15951 7.52502 9.25513 7.70334 9.42782C7.89796 9.6157 8.00934 9.87838 8.00934 10.1484C8.00934 10.4279 7.78265 10.6546 7.50309 10.6546C7.22352 10.6546 6.99684 10.4279 6.99684 10.1484C6.68971 10.172 5.93652 10.2361 5.91234 10.5922C5.91009 10.6248 5.93596 10.7947 6.65652 10.9584C7.69602 11.1946 8.21352 11.6587 8.19609 12.3371C8.18765 12.6599 8.04084 13.3259 7.05196 13.6173Z" fill="#145BFF"/>
<path d="M1.63164 5.22708V4.46321C1.63164 3.55871 2.36739 2.82296 3.27189 2.82296H4.04027L3.74777 3.11546C3.54977 3.31346 3.54977 3.63408 3.74777 3.83152C3.84677 3.93052 3.97614 3.98002 4.10552 3.98002C4.23489 3.98002 4.36427 3.93052 4.46327 3.83152L5.62033 2.67446C5.66702 2.62777 5.70414 2.57208 5.72945 2.50964C5.78064 2.38589 5.78064 2.24639 5.72945 2.12264C5.70358 2.06077 5.66702 2.00452 5.62033 1.95783L4.46383 0.801332C4.26583 0.603332 3.94577 0.603332 3.74833 0.801332C3.55089 0.999332 3.55033 1.31996 3.74833 1.51739L4.04083 1.80989H3.27189C1.80883 1.80989 0.619141 3.00014 0.619141 4.46321V5.22708C0.619141 5.50664 0.845828 5.73333 1.12539 5.73333C1.40495 5.73333 1.63164 5.50664 1.63164 5.22708Z" fill="#145BFF"/>
<path d="M16.8754 12.2661C16.5959 12.2661 16.3692 12.4928 16.3692 12.7724V13.5362C16.3692 14.4407 15.6334 15.1765 14.7295 15.1765H13.9606L14.2531 14.884C14.4511 14.686 14.4511 14.3654 14.2531 14.1679C14.0551 13.9705 13.7344 13.9699 13.537 14.1679L12.3799 15.325C12.3766 15.3284 12.376 15.3329 12.3726 15.3362C12.3304 15.3807 12.295 15.4319 12.2708 15.4898C12.2196 15.6136 12.2196 15.7536 12.2708 15.8774C12.295 15.9353 12.3304 15.9859 12.3726 16.0309C12.376 16.0343 12.3766 16.0388 12.3799 16.0422L13.537 17.1992C13.636 17.2982 13.7654 17.3477 13.8953 17.3477C14.0253 17.3477 14.1546 17.2982 14.2536 17.1992C14.4516 17.0012 14.4516 16.6806 14.2536 16.4832L13.9611 16.1907H14.7301C16.1926 16.1907 17.3828 15.0004 17.3828 13.5374V12.7735C17.3817 12.4928 17.155 12.2661 16.8754 12.2661Z" fill="#145BFF"/>
</g>
<defs>
<clipPath id="clip0_142_558">
<rect width="18" height="18" fill="white"/>
</clipPath>
</defs>
</svg>
