<svg width="384" height="330" viewBox="0 0 384 330" fill="none" xmlns="http://www.w3.org/2000/svg">
<g clip-path="url(#clip0_433_378)">
<path d="M383.33 203.73C382.37 210.75 381.61 217.81 380.43 224.79C374.58 259.33 359.63 289.58 337.04 316.17C333.18 320.72 329.02 325.02 325.17 329.24C318.87 322.97 312.82 316.94 306.66 310.81C308.87 308.41 311.22 305.86 313.97 302.88C306.68 295.67 299.54 288.61 292.57 281.71C298.05 276.24 303.33 270.99 308.67 265.66C314.84 271.92 321.2 278.36 327.94 285.19C345.46 259.64 354.95 232.23 356.76 201.6C344.89 201.6 333.37 201.6 321.64 201.6C321.64 193.72 321.64 186.29 321.64 178.46C333.18 178.46 344.58 178.46 356.57 178.46C353.33 141.74 339.74 110.04 315.82 82.2598C308.1 89.9998 300.65 97.4698 293.37 104.77C287.89 99.2898 282.62 94.0098 277.17 88.5598C284.37 81.4098 291.82 73.9998 299.62 66.2598C271.43 42.6298 239.88 29.5398 203.44 26.6898C203.44 37.4898 203.44 47.8798 203.44 58.5598C195.54 58.5598 188.14 58.5598 180.25 58.5598C180.25 48.1298 180.25 37.7198 180.25 27.4098C158.56 23.7898 99.9496 47.6898 84.4896 66.3498C91.8596 73.6498 99.2596 80.9998 106.41 88.0998C100.77 93.7398 95.4296 99.0798 89.8496 104.66C82.7096 97.5098 75.2596 90.0398 67.8096 82.5798C47.5996 101.04 26.3796 150.84 27.1396 178.19C38.5396 178.19 49.9696 178.19 61.6796 178.19C61.6796 186.08 61.6796 193.61 61.6796 201.48C50.1296 201.48 38.7096 201.48 26.6896 201.48C28.3096 232.09 37.9396 259.45 54.8496 284.36C61.3196 277.84 67.6896 271.42 73.7496 265.31C79.6096 271.2 84.9196 276.54 90.3596 282.01C83.8096 288.5 76.6696 295.57 69.3696 302.8C72.1796 305.84 74.5296 308.38 76.7296 310.76C70.5596 316.88 64.4896 322.9 58.2896 329.05C41.0596 311.95 26.7996 292.27 16.6796 269.72C-21.9604 183.56 8.45962 81.6098 87.9796 30.5698C201.21 -42.1102 352.15 21.1798 379.36 152.82C380.94 160.49 381.57 168.35 382.66 176.12C382.83 177.34 383.1 178.55 383.33 179.76C383.33 187.76 383.33 195.74 383.33 203.73Z" fill="#065EB9"/>
<path d="M187.83 168.72C178.93 170.34 171.96 177.49 170.62 186.48C170.41 185.25 169.91 184 169.22 183.1C153.66 162.67 137.98 142.32 122.33 121.96C121.42 120.78 120.55 119.57 119.66 118.38C119.81 118.2 119.96 118.02 120.11 117.84C133.24 127.92 146.37 138.01 159.5 148.09C167.8 154.48 176.03 160.95 184.46 167.17C185.4 167.86 186.6 168.4 187.83 168.72Z" fill="#006CDD"/>
<path d="M212.95 189.66C212.95 199.21 206.65 207.3 197.98 209.98C197.33 210.19 196.67 210.36 196 210.5C195.94 210.51 195.87 210.52 195.81 210.54C195.2 210.66 194.58 210.75 193.96 210.82C193.61 210.86 193.25 210.89 192.9 210.9C192.55 210.92 192.21 210.93 191.86 210.93C191.8 210.94 191.73 210.94 191.67 210.94C179.91 210.94 170.38 201.41 170.38 189.66C170.38 188.58 170.46 187.52 170.62 186.48C171.96 177.49 178.93 170.34 187.83 168.72C189.07 168.49 190.36 168.37 191.67 168.37C203.42 168.37 212.95 177.9 212.95 189.66Z" fill="#006CDD"/>
<mask id="mask0_433_378" style="mask-type:luminance" maskUnits="userSpaceOnUse" x="149" y="261" width="78" height="68">
<path d="M226.291 261H149V328.919H226.291V261Z" fill="white"/>
</mask>
<g mask="url(#mask0_433_378)">
<path d="M162.552 324.827C163.109 323.905 163.372 322.886 163.392 321.846C163.46 318.366 164.261 315.012 166 312.11L181.843 285.872C183.826 282.558 186.971 280.107 190.702 278.616C191.952 278.116 193.085 277.351 194.013 276.312C196.065 274.018 196.631 270.949 195.811 268.135L191.005 272.155C189.852 273.116 188.084 273.174 186.668 272.302C185.662 271.684 184.783 270.89 184.08 269.968L183.66 269.429C182.79 268.292 182.849 266.811 183.796 265.919L188.7 261.33C185.281 260.428 181.569 261.33 179.196 263.968C177.399 265.978 176.734 268.586 177.154 271.096C177.76 274.753 177.037 278.361 175.23 281.391L159.426 308.08C157.727 310.933 155.324 313.355 152.286 314.904C151.231 315.444 150.342 316.257 149.747 317.346C148.096 320.317 149.297 324.327 152.462 326.455C156.027 328.837 160.618 328.063 162.552 324.827ZM153.224 324.386C153.087 324.062 152.813 323.788 152.472 323.65C151.905 323.415 151.554 322.846 151.632 322.297C151.681 321.964 151.573 321.621 151.329 321.336C150.938 320.875 150.919 320.248 151.28 319.836C151.495 319.591 151.583 319.248 151.514 318.915C151.397 318.356 151.71 317.826 152.257 317.669C152.589 317.571 152.843 317.336 152.96 317.032C153.155 316.522 153.712 316.248 154.298 316.375C154.65 316.454 155.011 316.385 155.285 316.189C155.734 315.865 156.398 315.904 156.867 316.297C157.15 316.532 157.522 316.65 157.873 316.62C158.459 316.571 159.045 316.924 159.27 317.463C159.407 317.787 159.68 318.062 160.022 318.199C160.589 318.434 160.94 319.003 160.862 319.552C160.813 319.885 160.921 320.228 161.165 320.513C161.556 320.974 161.575 321.601 161.214 322.013C160.999 322.258 160.911 322.601 160.979 322.935C161.096 323.493 160.784 324.023 160.237 324.18C159.905 324.278 159.651 324.513 159.534 324.817C159.338 325.327 158.782 325.602 158.186 325.474C157.834 325.396 157.473 325.464 157.199 325.66C156.75 325.984 156.086 325.945 155.617 325.552C155.334 325.317 154.962 325.199 154.611 325.229C154.035 325.278 153.448 324.935 153.224 324.386Z" fill="#002394"/>
<path d="M185.684 278.424C184.151 278.6 182.48 278.159 181.152 277.228C179.824 276.296 178.857 274.884 178.515 273.404C179.931 276.032 182.695 278.081 185.684 278.424Z" fill="#002394"/>
<path d="M186.831 261.846C185.864 262.542 184.955 263.287 184.066 264.052C183.842 264.238 183.617 264.434 183.402 264.63C183.177 264.836 182.972 265.003 182.738 265.238C182.513 265.464 182.328 265.728 182.191 266.013C182.044 266.297 181.937 266.601 181.878 266.915C181.761 267.552 181.83 268.229 182.064 268.866C182.181 269.19 182.357 269.484 182.543 269.778C182.748 270.072 182.953 270.298 183.158 270.553C183.998 271.572 185.063 272.435 186.254 273.004C185.209 272.21 184.311 271.288 183.598 270.268C183.422 270.003 183.217 269.739 183.06 269.503C182.914 269.248 182.777 268.994 182.699 268.719C182.523 268.189 182.474 267.621 182.582 267.101C182.67 266.572 182.914 266.091 183.265 265.689C183.431 265.493 183.666 265.277 183.861 265.081C184.066 264.875 184.271 264.67 184.477 264.454C185.278 263.611 186.078 262.758 186.831 261.846Z" fill="#002394"/>
<path d="M195.252 269.796C195.301 271.699 194.695 273.483 193.631 274.905C193.083 275.611 192.439 276.238 191.687 276.738C191.316 276.983 190.915 277.209 190.495 277.395C190.085 277.572 189.616 277.748 189.186 277.944C187.438 278.739 185.816 279.768 184.429 281.033C183.033 282.288 181.89 283.778 181.069 285.416C182.134 283.916 183.404 282.582 184.82 281.435C186.246 280.288 187.829 279.317 189.538 278.552C189.968 278.356 190.388 278.189 190.847 277.984C191.296 277.778 191.716 277.533 192.107 277.258C192.888 276.699 193.572 276.013 194.089 275.228C194.617 274.444 194.988 273.562 195.193 272.64C195.379 271.708 195.418 270.748 195.252 269.796Z" fill="#002394"/>
<path d="M150.515 317.791C151.189 316.879 152.068 316.202 153.113 315.761C153.65 315.526 154.148 315.222 154.646 314.928C155.135 314.614 155.604 314.281 156.053 313.918C156.942 313.192 157.743 312.369 158.436 311.477C159.13 310.584 159.726 309.614 160.165 308.574C159.462 309.457 158.749 310.31 157.987 311.114C157.596 311.506 157.225 311.918 156.805 312.281C156.404 312.663 155.985 313.026 155.555 313.379C154.695 314.085 153.777 314.722 152.8 315.291C151.784 315.849 150.915 316.732 150.515 317.791Z" fill="#002394"/>
<path d="M163.908 328.893C165.002 324.51 166.79 320.696 168.948 317.029C173.227 309.783 178.599 303.351 183.912 296.87C186.315 293.938 188.532 290.859 190.828 287.84C191.052 287.545 191.267 287.251 191.629 287.036C189.49 292.301 187.35 297.566 185.143 302.978C190.75 302.978 196.132 302.978 201.709 302.978C200.439 299.87 199.218 296.87 197.997 293.879C196.698 290.683 195.379 287.487 194.129 284.271C193.944 283.79 193.905 283.104 194.1 282.643C195.145 280.035 196.493 277.535 197.313 274.868C198.134 272.21 198.437 269.396 199.003 266.504C199.833 266.122 200.039 266.916 200.322 267.592C202.783 273.397 205.254 279.201 207.726 285.006C213.713 299.115 219.701 313.225 225.688 327.334C225.874 327.775 226.03 328.226 226.284 328.893C224.194 328.893 222.299 328.893 220.394 328.893C218.128 328.893 215.872 328.834 213.606 328.922C212.57 328.961 212.072 328.658 211.682 327.657C210.187 323.794 208.566 319.99 207.052 316.137C206.71 315.274 206.28 314.95 205.333 314.96C197.362 314.999 189.402 314.999 181.431 314.96C180.552 314.96 180.152 315.254 179.829 316.068C178.296 319.97 176.674 323.834 175.141 327.736C174.799 328.589 174.379 328.942 173.432 328.922C170.345 328.854 167.249 328.893 163.908 328.893Z" fill="#002394"/>
</g>
</g>
<defs>
<clipPath id="clip0_433_378">
<rect width="383.33" height="329.24" fill="white"/>
</clipPath>
</defs>
</svg>
