<svg width="121" height="44" viewBox="0 0 121 44" fill="none" xmlns="http://www.w3.org/2000/svg">
<g clip-path="url(#clip0_142_1338)">
<path d="M9.58487 41.3507C9.9471 40.7536 10.1187 40.093 10.1314 39.4197C10.1759 37.1648 10.697 34.9924 11.8281 33.1122L22.1357 16.1144C23.4257 13.9674 25.4719 12.3794 27.8995 11.4139C28.7129 11.09 29.4501 10.5945 30.0538 9.92124C31.3883 8.43488 31.7569 6.44672 31.223 4.62371L28.0965 7.22801C27.3466 7.8505 26.1964 7.88861 25.2749 7.32329C24.6204 6.92311 24.0485 6.40861 23.5909 5.81152L23.3176 5.46216C22.7521 4.72534 22.7902 3.76619 23.4066 3.18816L26.5967 0.215448C24.3725 -0.368932 21.9577 0.215448 20.4135 1.92412C19.2442 3.22627 18.8121 4.9159 19.0853 6.542C19.4793 8.91128 19.0091 11.2488 17.8334 13.2115L7.55133 30.5016C6.44559 32.35 4.8823 33.9189 2.90595 34.9225C2.21963 35.2719 1.64134 35.7991 1.2537 36.5042C0.179735 38.4288 0.961379 41.0268 3.02034 42.4051C5.33985 43.9487 8.32662 43.4469 9.58487 41.3507ZM3.51602 41.0649C3.42705 40.8553 3.24912 40.6774 3.0267 40.5885C2.65812 40.436 2.42934 40.0676 2.48018 39.7119C2.51196 39.4959 2.44205 39.2736 2.28318 39.0894C2.02899 38.7909 2.01628 38.3843 2.25141 38.1176C2.39121 37.9588 2.44841 37.7365 2.40392 37.5205C2.32767 37.1584 2.53102 36.8154 2.88689 36.7138C3.10295 36.6503 3.26818 36.4978 3.34444 36.3009C3.47153 35.9706 3.83376 35.7928 4.21505 35.8753C4.44382 35.9261 4.67895 35.8817 4.85689 35.7546C5.14921 35.545 5.58134 35.5704 5.88637 35.8245C6.07066 35.977 6.31214 36.0532 6.54091 36.0341C6.9222 36.0024 7.30349 36.231 7.44965 36.5804C7.53862 36.79 7.71656 36.9679 7.93898 37.0568C8.30756 37.2092 8.53633 37.5777 8.48549 37.9334C8.45372 38.1493 8.52362 38.3716 8.68249 38.5559C8.93668 38.8544 8.94939 39.2609 8.71426 39.5277C8.57446 39.6865 8.51726 39.9088 8.56175 40.1248C8.63801 40.4869 8.43465 40.8299 8.07878 40.9315C7.86272 40.995 7.69749 41.1475 7.62123 41.3444C7.49414 41.6747 7.13191 41.8525 6.74427 41.7699C6.51549 41.7191 6.28037 41.7636 6.10243 41.8906C5.81011 42.1002 5.37798 42.0748 5.07295 41.8208C4.88866 41.6683 4.64718 41.5921 4.4184 41.6111C4.04347 41.6429 3.66218 41.4206 3.51602 41.0649Z" fill="#002394"/>
<path d="M24.6332 11.3001C23.6355 11.4144 22.5488 11.1286 21.6846 10.5251C20.8203 9.92168 20.1912 9.007 19.9688 8.04785C20.8902 9.75018 22.6886 11.0777 24.6332 11.3001Z" fill="#002394"/>
<path d="M25.3825 0.552734C24.7533 1.00372 24.1623 1.48647 23.584 1.98192C23.4379 2.10261 23.2917 2.22965 23.1519 2.35669C23.0057 2.49008 22.8723 2.59806 22.7198 2.75051C22.5736 2.89661 22.4529 3.06811 22.3639 3.25232C22.2686 3.43652 22.1987 3.63343 22.1606 3.8367C22.0843 4.24957 22.1288 4.68786 22.2813 5.10074C22.3576 5.31035 22.4719 5.50091 22.5927 5.69147C22.7261 5.88203 22.8596 6.02812 22.993 6.19327C23.5396 6.85387 24.2322 7.41285 25.0075 7.78126C24.3276 7.26675 23.7429 6.66967 23.279 6.00906C23.1646 5.83756 23.0312 5.66606 22.9295 5.51361C22.8342 5.34846 22.7452 5.18331 22.6944 5.00546C22.58 4.66245 22.5482 4.29404 22.6181 3.95738C22.6753 3.61438 22.8342 3.30313 23.0629 3.0427C23.171 2.91566 23.3235 2.77592 23.4506 2.64888C23.584 2.51549 23.7175 2.3821 23.8509 2.24235C24.372 1.69609 24.8931 1.14347 25.3825 0.552734Z" fill="#002394"/>
<path d="M30.861 5.69141C30.8928 6.92369 30.4988 8.07974 29.8061 9.00078C29.4502 9.45812 29.0308 9.86464 28.5415 10.1886C28.3 10.3474 28.0395 10.4935 27.7662 10.6142C27.4993 10.7285 27.1943 10.8428 26.9146 10.9699C25.7771 11.4844 24.7222 12.1513 23.8198 12.9707C22.9111 13.7838 22.1676 14.7493 21.6338 15.8101C22.3265 14.8382 23.1526 13.9744 24.074 13.2312C25.0018 12.488 26.0313 11.8592 27.1434 11.3637C27.423 11.2367 27.6963 11.1287 27.995 10.9953C28.2873 10.8619 28.5605 10.7031 28.8147 10.5252C29.3231 10.1632 29.768 9.71855 30.1048 9.21039C30.4479 8.70223 30.6894 8.13056 30.8229 7.53347C30.9436 6.93004 30.969 6.30755 30.861 5.69141Z" fill="#002394"/>
<path d="M1.76172 36.797C2.2002 36.2063 2.77214 35.768 3.4521 35.4822C3.80162 35.3297 4.12571 35.1328 4.44981 34.9422C4.76755 34.739 5.07258 34.523 5.3649 34.288C5.94319 33.8179 6.46429 33.2844 6.91548 32.7064C7.36667 32.1283 7.75432 31.4995 8.04028 30.8262C7.58274 31.3978 7.11883 31.9505 6.62316 32.4713C6.36897 32.7254 6.12748 32.9922 5.85422 33.2272C5.59368 33.4749 5.32042 33.71 5.04081 33.9386C4.48158 34.396 3.88423 34.8088 3.24875 35.1773C2.58785 35.5393 2.02227 36.111 1.76172 36.797Z" fill="#002394"/>
<path d="M10.4746 43.9811C11.1863 41.1418 12.3493 38.6709 13.7537 36.2952C16.5371 31.6011 20.0323 27.4342 23.4893 23.2356C25.0526 21.3364 26.4951 19.3419 27.9885 17.3855C28.1347 17.1949 28.2745 17.0043 28.5096 16.8646C27.1179 20.2756 25.7262 23.6866 24.29 27.1929C27.9377 27.1929 31.4392 27.1929 35.0678 27.1929C34.2417 25.1793 33.4473 23.2356 32.6529 21.2983C31.8078 19.2275 30.9499 17.1568 30.1364 15.0733C30.0157 14.7621 29.9903 14.3175 30.1174 14.0189C30.7973 12.3293 31.6743 10.7095 32.2081 8.98181C32.7419 7.26043 32.9389 5.43742 33.3075 3.5636C33.8477 3.31587 33.9811 3.83038 34.1654 4.26866C35.7668 8.02902 37.3746 11.7894 38.9823 15.5497C42.8779 24.6902 46.7734 33.8307 50.6689 42.9711C50.7896 43.257 50.8913 43.5492 51.0565 43.9811C49.6966 43.9811 48.4637 43.9811 47.2246 43.9811C45.7502 43.9811 44.2823 43.943 42.808 44.0001C42.1343 44.0256 41.8102 43.8286 41.5561 43.1807C40.5838 40.6781 39.5289 38.2135 38.5439 35.7172C38.3215 35.1582 38.0418 34.9486 37.4254 34.955C32.2399 34.9804 27.0607 34.9804 21.8752 34.955C21.3032 34.955 21.0427 35.1455 20.833 35.6727C19.8353 38.2008 18.7804 40.7035 17.7827 43.2316C17.5602 43.7842 17.287 44.0129 16.6706 44.0001C14.6624 43.9557 12.648 43.9811 10.4746 43.9811Z" fill="#002394"/>
</g>
<path d="M55.3024 23.4595L61.3073 9.98688H64.3867L70.4109 23.4595H67.139L62.2119 11.5651H63.4437L58.4973 23.4595H55.3024ZM58.3048 20.5725L59.1324 18.2052H66.0612L66.908 20.5725H58.3048ZM74.8881 23.4595V9.98688H80.7199C81.926 9.98688 82.9653 10.1858 83.8378 10.5835C84.7103 10.9685 85.3839 11.5266 85.8587 12.258C86.3334 12.9893 86.5708 13.8619 86.5708 14.8755C86.5708 15.8763 86.3334 16.7424 85.8587 17.4738C85.3839 18.2052 84.7103 18.7697 83.8378 19.1675C82.9653 19.5524 81.926 19.7449 80.7199 19.7449H76.6203L78.0061 18.3399V23.4595H74.8881ZM78.0061 18.6863L76.6203 17.2043H80.5466C81.509 17.2043 82.2275 16.999 82.7022 16.5885C83.177 16.1779 83.4144 15.6069 83.4144 14.8755C83.4144 14.1313 83.177 13.5539 82.7022 13.1433C82.2275 12.7327 81.509 12.5274 80.5466 12.5274H76.6203L78.0061 11.0454V18.6863ZM94.744 15.4144H101.23V17.8395H94.744V15.4144ZM94.9749 20.9574H102.308V23.4595H91.8762V9.98688H102.058V12.4889H94.9749V20.9574ZM106.197 23.4595L111.99 15.4722V17.7432L106.447 9.98688H109.988L113.819 15.3952L112.337 15.4144L116.109 9.98688H119.496L113.992 17.6085V15.3759L119.823 23.4595H116.224L112.26 17.7432H113.684L109.777 23.4595H106.197Z" fill="#002394"/>
<path d="M56.0081 36.0449V31.5541H56.8678L58.7796 34.7233H58.3241L60.2038 31.5541H61.0571L61.0699 36.0449H60.0948L60.0883 33.0489H60.268L58.7667 35.5702H58.2984L56.7651 33.0489H56.9832V36.0449H56.0081ZM67.0048 33.3632H69.1668V34.1716H67.0048V33.3632ZM67.0818 35.2109H69.5261V36.0449H66.0489V31.5541H69.4427V32.3881H67.0818V35.2109ZM76.4157 36.1219C76.0693 36.1219 75.7463 36.0663 75.447 35.9551C75.1518 35.8396 74.8952 35.6771 74.6771 35.4675C74.459 35.258 74.2879 35.012 74.1638 34.7297C74.0441 34.4475 73.9842 34.1374 73.9842 33.7995C73.9842 33.4616 74.0441 33.1515 74.1638 32.8692C74.2879 32.587 74.459 32.341 74.6771 32.1315C74.8995 31.9219 75.1583 31.7615 75.4534 31.6503C75.7485 31.5348 76.0714 31.4771 76.4221 31.4771C76.8113 31.4771 77.162 31.5455 77.4743 31.6824C77.7908 31.815 78.0559 32.0117 78.2698 32.2726L77.6026 32.8885C77.4486 32.7131 77.2775 32.5827 77.0893 32.4971C76.9011 32.4073 76.6958 32.3624 76.4734 32.3624C76.2639 32.3624 76.0714 32.3966 75.896 32.4651C75.7207 32.5335 75.5688 32.6319 75.4405 32.7602C75.3122 32.8885 75.2117 33.0403 75.139 33.2157C75.0706 33.391 75.0364 33.5856 75.0364 33.7995C75.0364 34.0133 75.0706 34.2079 75.139 34.3833C75.2117 34.5587 75.3122 34.7105 75.4405 34.8388C75.5688 34.9671 75.7207 35.0655 75.896 35.1339C76.0714 35.2024 76.2639 35.2366 76.4734 35.2366C76.6958 35.2366 76.9011 35.1938 77.0893 35.1083C77.2775 35.0184 77.4486 34.8837 77.6026 34.7041L78.2698 35.32C78.0559 35.5809 77.7908 35.7797 77.4743 35.9166C77.162 36.0535 76.8092 36.1219 76.4157 36.1219ZM85.9645 31.5541H87.0039V36.0449H85.9645V31.5541ZM83.9244 36.0449H82.8851V31.5541H83.9244V36.0449ZM86.0415 34.2037H83.8474V33.3247H86.0415V34.2037ZM91.3896 36.0449L93.3913 31.5541H94.4178L96.4258 36.0449H95.3352L93.6928 32.0801H94.1034L92.4546 36.0449H91.3896ZM92.3904 35.0826L92.6663 34.2935H94.9759L95.2582 35.0826H92.3904ZM100.805 36.0449V31.5541H101.665L104.314 34.7875H103.897V31.5541H104.924V36.0449H104.071L101.415 32.8115H101.832V36.0449H100.805ZM109.9 36.0449V31.5541H110.939V36.0449H109.9ZM118.068 36.1219C117.721 36.1219 117.398 36.0663 117.099 35.9551C116.804 35.8396 116.547 35.6771 116.329 35.4675C116.111 35.258 115.94 35.012 115.816 34.7297C115.696 34.4475 115.636 34.1374 115.636 33.7995C115.636 33.4616 115.696 33.1515 115.816 32.8692C115.94 32.587 116.111 32.341 116.329 32.1315C116.552 31.9219 116.81 31.7615 117.105 31.6503C117.401 31.5348 117.723 31.4771 118.074 31.4771C118.463 31.4771 118.814 31.5455 119.126 31.6824C119.443 31.815 119.708 32.0117 119.922 32.2726L119.255 32.8885C119.101 32.7131 118.93 32.5827 118.741 32.4971C118.553 32.4073 118.348 32.3624 118.125 32.3624C117.916 32.3624 117.723 32.3966 117.548 32.4651C117.373 32.5335 117.221 32.6319 117.093 32.7602C116.964 32.8885 116.864 33.0403 116.791 33.2157C116.723 33.391 116.688 33.5856 116.688 33.7995C116.688 34.0133 116.723 34.2079 116.791 34.3833C116.864 34.5587 116.964 34.7105 117.093 34.8388C117.221 34.9671 117.373 35.0655 117.548 35.1339C117.723 35.2024 117.916 35.2366 118.125 35.2366C118.348 35.2366 118.553 35.1938 118.741 35.1083C118.93 35.0184 119.101 34.8837 119.255 34.7041L119.922 35.32C119.708 35.5809 119.443 35.7797 119.126 35.9166C118.814 36.0535 118.461 36.1219 118.068 36.1219Z" fill="#002394"/>
<defs>
<clipPath id="clip0_142_1338">
<rect width="50.2857" height="44" fill="white" transform="translate(0.770508)"/>
</clipPath>
</defs>
</svg>
