<svg width="120" height="44" viewBox="0 0 120 44" fill="none" xmlns="http://www.w3.org/2000/svg">
<g clip-path="url(#clip0_269_1635)">
<path d="M8.81437 41.3512C9.17659 40.7541 9.34817 40.0935 9.36088 39.4202C9.40536 37.1653 9.92646 34.9929 11.0576 33.1127L21.3651 16.1149C22.6552 13.9679 24.7014 12.3799 27.129 11.4144C27.9424 11.0905 28.6795 10.595 29.2833 9.92172C30.6178 8.43537 30.9863 6.44721 30.4525 4.62419L27.326 7.2285C26.5761 7.85099 25.4259 7.8891 24.5044 7.32378C23.8499 6.9236 23.2779 6.40909 22.8204 5.81201L22.5471 5.46265C21.9816 4.72582 22.0197 3.76668 22.6361 3.18865L25.8262 0.215936C23.602 -0.368444 21.1872 0.215936 19.643 1.92461C18.4737 3.22676 18.0416 4.91638 18.3148 6.54248C18.7088 8.91176 18.2386 11.2493 17.0629 13.212L6.78082 30.5021C5.67508 32.3505 4.1118 33.9194 2.13545 34.923C1.44913 35.2724 0.870837 35.7996 0.483193 36.5047C-0.590773 38.4293 0.190871 41.0273 2.24983 42.4056C4.56934 43.9492 7.55611 43.4473 8.81437 41.3512ZM2.74551 41.0654C2.65654 40.8558 2.47861 40.6779 2.25619 40.589C1.88761 40.4365 1.65883 40.0681 1.70967 39.7124C1.74145 39.4964 1.67154 39.2741 1.51267 39.0899C1.25848 38.7914 1.24577 38.3848 1.4809 38.1181C1.62071 37.9593 1.6779 37.7369 1.63342 37.521C1.55716 37.1589 1.76051 36.8159 2.11638 36.7143C2.33245 36.6508 2.49767 36.4983 2.57393 36.3014C2.70103 35.9711 3.06325 35.7932 3.44454 35.8758C3.67331 35.9266 3.90844 35.8822 4.08638 35.7551C4.3787 35.5455 4.81083 35.5709 5.11586 35.825C5.30015 35.9774 5.54163 36.0537 5.77041 36.0346C6.1517 36.0029 6.53298 36.2315 6.67915 36.5809C6.76811 36.7905 6.94605 36.9684 7.16847 37.0573C7.53705 37.2097 7.76582 37.5781 7.71498 37.9339C7.68321 38.1498 7.75311 38.3721 7.91198 38.5563C8.16617 38.8549 8.17888 39.2614 7.94376 39.5282C7.80395 39.687 7.74676 39.9093 7.79124 40.1253C7.8675 40.4873 7.66414 40.8303 7.30827 40.932C7.09221 40.9955 6.92698 41.1479 6.85073 41.3449C6.72363 41.6752 6.3614 41.853 5.97376 41.7704C5.74499 41.7196 5.50986 41.7641 5.33192 41.8911C5.0396 42.1007 4.60747 42.0753 4.30244 41.8213C4.11815 41.6688 3.87667 41.5926 3.6479 41.6116C3.27296 41.6434 2.89167 41.4211 2.74551 41.0654Z" fill="white"/>
<path d="M23.8637 11.301C22.866 11.4154 21.7793 11.1295 20.915 10.5261C20.0508 9.92266 19.4216 9.00797 19.1992 8.04883C20.1207 9.75115 21.9191 11.0787 23.8637 11.301Z" fill="white"/>
<path d="M24.6119 0.552734C23.9828 1.00372 23.3918 1.48647 22.8135 1.98192C22.6674 2.10261 22.5212 2.22965 22.3814 2.35669C22.2352 2.49008 22.1018 2.59806 21.9493 2.75051C21.8031 2.89661 21.6824 3.06811 21.5934 3.25232C21.4981 3.43652 21.4282 3.63343 21.39 3.8367C21.3138 4.24957 21.3583 4.68786 21.5108 5.10074C21.587 5.31035 21.7014 5.50091 21.8222 5.69147C21.9556 5.88203 22.0891 6.02812 22.2225 6.19327C22.769 6.85387 23.4617 7.41285 24.237 7.78126C23.557 7.26675 22.9724 6.66967 22.5085 6.00906C22.3941 5.83756 22.2607 5.66606 22.159 5.51361C22.0637 5.34846 21.9747 5.18331 21.9239 5.00546C21.8095 4.66245 21.7777 4.29404 21.8476 3.95738C21.9048 3.61438 22.0637 3.30313 22.2924 3.0427C22.4005 2.91566 22.553 2.77592 22.6801 2.64888C22.8135 2.51549 22.947 2.3821 23.0804 2.24235C23.6015 1.69609 24.1226 1.14347 24.6119 0.552734Z" fill="white"/>
<path d="M30.0905 5.69141C30.1223 6.92369 29.7283 8.07974 29.0356 9.00078C28.6797 9.45812 28.2603 9.86464 27.771 10.1886C27.5295 10.3474 27.2689 10.4935 26.9957 10.6142C26.7288 10.7285 26.4238 10.8428 26.1441 10.9699C25.0066 11.4844 23.9517 12.1513 23.0493 12.9707C22.1406 13.7838 21.3971 14.7493 20.8633 15.8101C21.556 14.8382 22.3821 13.9744 23.3035 13.2312C24.2313 12.488 25.2608 11.8592 26.3729 11.3637C26.6525 11.2367 26.9258 11.1287 27.2245 10.9953C27.5168 10.8619 27.79 10.7031 28.0442 10.5252C28.5526 10.1632 28.9975 9.71855 29.3343 9.21039C29.6774 8.70223 29.9189 8.13056 30.0524 7.53347C30.1731 6.93004 30.1985 6.30755 30.0905 5.69141Z" fill="white"/>
<path d="M0.992188 36.797C1.43067 36.2063 2.0026 35.768 2.68257 35.4822C3.03209 35.3297 3.35618 35.1328 3.68028 34.9422C3.99802 34.739 4.30305 34.523 4.59537 34.288C5.17366 33.8179 5.69476 33.2844 6.14595 32.7064C6.59714 32.1283 6.98479 31.4995 7.27075 30.8262C6.81321 31.3978 6.3493 31.9505 5.85363 32.4713C5.59943 32.7254 5.35795 32.9922 5.08469 33.2272C4.82415 33.4749 4.55089 33.71 4.27128 33.9386C3.71205 34.396 3.1147 34.8088 2.47922 35.1773C1.81831 35.5393 1.25274 36.111 0.992188 36.797Z" fill="white"/>
<path d="M9.70312 43.9811C10.4149 41.1418 11.5778 38.6709 12.9822 36.2952C15.7656 31.6011 19.2608 27.4342 22.7178 23.2356C24.2811 21.3364 25.7236 19.3419 27.217 17.3855C27.3632 17.1949 27.503 17.0043 27.7381 16.8646C26.3464 20.2756 24.9547 23.6866 23.5185 27.1929C27.1662 27.1929 30.6677 27.1929 34.2963 27.1929C33.4702 25.1793 32.6758 23.2356 31.8815 21.2983C31.0363 19.2275 30.1784 17.1568 29.365 15.0733C29.2442 14.7621 29.2188 14.3175 29.3459 14.0189C30.0259 12.3293 30.9028 10.7095 31.4366 8.98181C31.9704 7.26043 32.1674 5.43742 32.536 3.5636C33.0762 3.31587 33.2096 3.83038 33.3939 4.26866C34.9953 8.02902 36.6031 11.7894 38.2109 15.5497C42.1064 24.6902 46.0019 33.8307 49.8974 42.9711C50.0181 43.257 50.1198 43.5492 50.285 43.9811C48.9251 43.9811 47.6923 43.9811 46.4531 43.9811C44.9788 43.9811 43.5108 43.943 42.0365 44.0001C41.3629 44.0256 41.0388 43.8286 40.7846 43.1807C39.8123 40.6781 38.7574 38.2135 37.7724 35.7172C37.55 35.1582 37.2704 34.9486 36.6539 34.955C31.4684 34.9804 26.2892 34.9804 21.1037 34.955C20.5317 34.955 20.2712 35.1455 20.0615 35.6727C19.0638 38.2008 18.0089 40.7035 17.0112 43.2316C16.7888 43.7842 16.5155 44.0129 15.8991 44.0001C13.891 43.9557 11.8765 43.9811 9.70312 43.9811Z" fill="white"/>
</g>
<path d="M65.1752 20.572H58.9201L57.7268 23.459H54.5319L60.5368 9.98639H63.6162L69.6404 23.459H66.3685L65.1752 20.572ZM64.1936 18.2047L62.0573 13.0466L59.9209 18.2047H64.1936ZM79.9493 9.98639C81.1426 9.98639 82.1755 10.1853 83.048 10.583C83.9334 10.9808 84.6134 11.5454 85.0882 12.2767C85.5629 13.0081 85.8003 13.8742 85.8003 14.875C85.8003 15.863 85.5629 16.7291 85.0882 17.4733C84.6134 18.2047 83.9334 18.7692 83.048 19.167C82.1755 19.5519 81.1426 19.7444 79.9493 19.7444H77.2356V23.459H74.1176V9.98639H79.9493ZM79.7761 17.2039C80.7128 17.2039 81.4249 17.005 81.9125 16.6072C82.4001 16.1966 82.6439 15.6192 82.6439 14.875C82.6439 14.118 82.4001 13.5406 81.9125 13.1428C81.4249 12.7322 80.7128 12.5269 79.7761 12.5269H77.2356V17.2039H79.7761ZM101.537 20.9569V23.459H91.1057V9.98639H101.287V12.4884H94.2044V15.4139H100.46V17.839H94.2044V20.9569H101.537ZM115.454 23.459L112.201 18.7821L109.006 23.459H105.426L110.411 16.6072L105.677 9.98639H109.218L112.317 14.3554L115.358 9.98639H118.726L114.03 16.4917L119.053 23.459H115.454Z" fill="white"/>
<path d="M59.3243 36.0449L59.3178 33.3504L57.9962 35.5702H57.5279L56.2127 33.4081V36.0449H55.2376V31.5541H56.0972L57.7781 34.3448L59.4333 31.5541H60.2866L60.2994 36.0449H59.3243ZM68.7556 35.2109V36.0449H65.2784V31.5541H68.6722V32.3881H66.3113V33.3632H68.3963V34.1716H66.3113V35.2109H68.7556ZM75.6327 36.1219C75.175 36.1219 74.7601 36.0235 74.388 35.8268C74.0202 35.6258 73.7294 35.3499 73.5155 34.9992C73.306 34.6442 73.2012 34.2443 73.2012 33.7995C73.2012 33.3547 73.306 32.9569 73.5155 32.6062C73.7294 32.2512 74.0202 31.9753 74.388 31.7786C74.7601 31.5776 75.1772 31.4771 75.6391 31.4771C76.0283 31.4771 76.379 31.5455 76.6912 31.6824C77.0077 31.8192 77.2729 32.016 77.4867 32.2726L76.8195 32.8885C76.5159 32.5378 76.1395 32.3624 75.6904 32.3624C75.4124 32.3624 75.1643 32.4244 74.9462 32.5485C74.7281 32.6682 74.557 32.8372 74.433 33.0553C74.3132 33.2734 74.2533 33.5215 74.2533 33.7995C74.2533 34.0775 74.3132 34.3256 74.433 34.5437C74.557 34.7618 74.7281 34.9329 74.9462 35.0569C75.1643 35.1767 75.4124 35.2366 75.6904 35.2366C76.1395 35.2366 76.5159 35.0591 76.8195 34.7041L77.4867 35.32C77.2729 35.5809 77.0077 35.7797 76.6912 35.9166C76.3747 36.0535 76.0219 36.1219 75.6327 36.1219ZM86.2208 31.5541V36.0449H85.1815V34.2037H83.1414V36.0449H82.1021V31.5541H83.1414V33.3247H85.1815V31.5541H86.2208ZM94.1544 35.0826H92.0693L91.6716 36.0449H90.6066L92.6082 31.5541H93.6347L95.6428 36.0449H94.5521L94.1544 35.0826ZM93.8272 34.2935L93.1151 32.5741L92.4029 34.2935H93.8272ZM104.141 31.5541V36.0449H103.288L101.049 33.3183V36.0449H100.022V31.5541H100.882L103.114 34.2807V31.5541H104.141ZM109.117 31.5541H110.156V36.0449H109.117V31.5541ZM117.285 36.1219C116.827 36.1219 116.412 36.0235 116.04 35.8268C115.672 35.6258 115.381 35.3499 115.168 34.9992C114.958 34.6442 114.853 34.2443 114.853 33.7995C114.853 33.3547 114.958 32.9569 115.168 32.6062C115.381 32.2512 115.672 31.9753 116.04 31.7786C116.412 31.5776 116.829 31.4771 117.291 31.4771C117.68 31.4771 118.031 31.5455 118.343 31.6824C118.66 31.8192 118.925 32.016 119.139 32.2726L118.472 32.8885C118.168 32.5378 117.792 32.3624 117.342 32.3624C117.064 32.3624 116.816 32.4244 116.598 32.5485C116.38 32.6682 116.209 32.8372 116.085 33.0553C115.965 33.2734 115.905 33.5215 115.905 33.7995C115.905 34.0775 115.965 34.3256 116.085 34.5437C116.209 34.7618 116.38 34.9329 116.598 35.0569C116.816 35.1767 117.064 35.2366 117.342 35.2366C117.792 35.2366 118.168 35.0591 118.472 34.7041L119.139 35.32C118.925 35.5809 118.66 35.7797 118.343 35.9166C118.027 36.0535 117.674 36.1219 117.285 36.1219Z" fill="white"/>
<defs>
<clipPath id="clip0_269_1635">
<rect width="50.2857" height="44" fill="white"/>
</clipPath>
</defs>
</svg>
