<svg width="18" height="18" viewBox="0 0 18 18" fill="none" xmlns="http://www.w3.org/2000/svg">
<path d="M9 0.5625C7.21042 0.564547 5.49472 1.27636 4.22929 2.54179C2.96386 3.80722 2.25205 5.52292 2.25 7.3125C2.25 12.4577 8.56398 17.1837 8.83287 17.3824C8.88125 17.4182 8.93983 17.4375 9 17.4375C9.06017 17.4375 9.11875 17.4182 9.16713 17.3824C9.43602 17.1837 15.75 12.4577 15.75 7.3125C15.748 5.52292 15.0361 3.80722 13.7707 2.54179C12.5053 1.27636 10.7896 0.564547 9 0.5625ZM9 12.375C7.99873 12.375 7.01995 12.0781 6.18743 11.5218C5.3549 10.9655 4.70603 10.1749 4.32286 9.24984C3.93969 8.32478 3.83944 7.30688 4.03477 6.32486C4.23011 5.34283 4.71227 4.44078 5.42027 3.73277C6.12828 3.02477 7.03033 2.54261 8.01236 2.34727C8.99438 2.15194 10.0123 2.25219 10.9373 2.63536C11.8624 3.01853 12.653 3.6674 13.2093 4.49993C13.7656 5.33245 14.0625 6.31123 14.0625 7.3125C14.061 8.65469 13.5271 9.94147 12.578 10.8905C11.629 11.8396 10.3422 12.3735 9 12.375ZM9.05062 8.505L7.46438 10.0913C7.26202 10.293 6.98793 10.4063 6.70219 10.4062H6.69938C6.41492 10.4047 6.14255 10.291 5.9414 10.0898C5.74026 9.8887 5.62656 9.61633 5.625 9.33187C5.62433 9.18987 5.65183 9.04914 5.7059 8.91783C5.75997 8.78652 5.83954 8.66724 5.94 8.56687L7.52625 6.98063C7.81339 7.66995 8.3613 8.21786 9.05062 8.505ZM12.3271 5.44294C12.4265 5.91691 12.3702 6.41032 12.1666 6.84971C11.9629 7.28909 11.6228 7.65097 11.1969 7.88148C10.771 8.11198 10.282 8.19878 9.8028 8.12896C9.32357 8.05914 8.8797 7.83644 8.53726 7.49399C8.19481 7.15155 7.97211 6.70768 7.90229 6.22845C7.83247 5.74922 7.91927 5.26026 8.14977 4.83434C8.38028 4.40843 8.74216 4.06833 9.18154 3.86468C9.62093 3.66103 10.1143 3.60471 10.5883 3.70411C10.6377 3.71507 10.6833 3.73912 10.7203 3.77375C10.7572 3.80838 10.7842 3.8523 10.7983 3.90092C10.8125 3.94955 10.8133 4.00108 10.8006 4.05011C10.788 4.09915 10.7624 4.1439 10.7266 4.17966L9.92528 4.98097C9.89943 5.00682 9.87892 5.03751 9.86493 5.07128C9.85095 5.10506 9.84375 5.14126 9.84375 5.17781V5.90625C9.84397 5.98077 9.87368 6.05218 9.92637 6.10488C9.97907 6.15757 10.0505 6.18728 10.125 6.1875H10.8534C10.89 6.1875 10.9262 6.1803 10.96 6.16631C10.9937 6.15232 11.0244 6.13181 11.0503 6.10596L11.8516 5.30466C11.8874 5.26881 11.9321 5.24323 11.9811 5.23061C12.0302 5.218 12.0817 5.2188 12.1303 5.23294C12.1789 5.24708 12.2229 5.27403 12.2575 5.31098C12.2921 5.34792 12.3162 5.3935 12.3271 5.44294Z" fill="#145BFF"/>
</svg>
