<svg width="18" height="18" viewBox="0 0 18 18" fill="none" xmlns="http://www.w3.org/2000/svg">
<path fill-rule="evenodd" clip-rule="evenodd" d="M5.90625 7.88006V8.4375H2.8125C2.65725 8.4375 2.53125 8.5635 2.53125 8.71875V11.5312C2.53125 11.6865 2.65725 11.8125 2.8125 11.8125H3.09375V15.75H1.125C0.96975 15.75 0.84375 15.876 0.84375 16.0312C0.84375 16.1865 0.96975 16.3125 1.125 16.3125H16.875C17.0303 16.3125 17.1562 16.1865 17.1562 16.0312C17.1562 15.876 17.0303 15.75 16.875 15.75H14.9062V11.8125H15.1875C15.3427 11.8125 15.4688 11.6865 15.4688 11.5312V8.71875C15.4688 8.5635 15.3427 8.4375 15.1875 8.4375H12.0938V7.875C12.5662 7.875 12.9375 7.51219 12.9375 7.08244V2.48006C12.9375 2.05031 12.5662 1.6875 12.0938 1.6875H5.90625V1.69256C5.43375 1.69256 5.0625 2.05537 5.0625 2.48512V7.0875C5.0625 7.51725 5.43375 7.88006 5.90625 7.88006ZM14.0625 15.75H14.3438V11.8125H3.65625V15.75H3.9375V12.6562C3.9375 12.501 4.0635 12.375 4.21875 12.375H11.25C11.4052 12.375 11.5312 12.501 11.5312 12.6562V15.75H11.8125V12.6562C11.8125 12.501 11.9385 12.375 12.0938 12.375H13.7812C13.9365 12.375 14.0625 12.501 14.0625 12.6562V15.75ZM13.5 15.75V12.9375H12.375V15.75H13.5ZM4.5 15.4688V15.75H10.9688V15.4688H4.5ZM4.5 14.625V14.9062H10.9688V14.625H4.5ZM4.5 13.7812V14.0625H10.9688V13.7812H4.5ZM10.9688 13.2188V12.9375H4.5V13.2188H10.9688ZM14.9062 10.4062V9H14.3438V10.4062H14.9062ZM3.09375 9V10.4062H3.65625V9H3.09375ZM12.0938 9V10.4062H12.6562V9H12.0938ZM13.2188 9V10.4062H13.7812V9H13.2188ZM5.34375 9V10.4062H5.90625V9H5.34375ZM6.46875 9V10.4062H7.02506V9H6.46875ZM7.58756 9V10.4062H8.15625V9H7.58756ZM9.27506 9H8.71875V10.4062H9.27506V9ZM9.83756 9V10.4062H10.4062V9H9.83756ZM10.9688 9V10.4062H11.5312V9H10.9688ZM4.21875 9V10.4062H4.78125V9H4.21875ZM6.46875 7.8795V8.4375H11.5312V7.87557L6.46875 7.8795ZM5.91244 2.25H12.0938C12.2423 2.25 12.375 2.34506 12.375 2.48006V7.08244C12.375 7.21744 12.2423 7.3125 12.0938 7.3125L5.90625 7.31756C5.75775 7.31756 5.625 7.2225 5.625 7.0875V2.48512C5.625 2.35012 5.75775 2.25506 5.90625 2.25506L5.91244 2.25ZM8.87288 4.08656L6.73931 5.31844C6.60488 5.39606 6.55875 5.56819 6.63638 5.70263L7.05825 6.43331C7.13588 6.56775 7.308 6.61387 7.44244 6.53625L9.576 5.30494C9.94163 5.48494 10.3888 5.48493 10.7685 5.26556C11.3732 4.91625 11.5807 4.14168 11.2314 3.537C10.8821 2.93175 10.1076 2.72419 9.50287 3.0735C9.12319 3.29288 8.89988 3.67987 8.87288 4.08656ZM10.5531 3.60394C10.3348 3.44306 10.0333 3.41663 9.78412 3.56063C9.54112 3.70069 9.414 3.9645 9.43481 4.22663C9.44325 4.33463 9.38869 4.43812 9.29475 4.49269L7.26413 5.66494L7.40475 5.9085L9.43538 4.73625C9.52931 4.68169 9.64631 4.68675 9.73575 4.74806C9.95231 4.89712 10.2442 4.9185 10.4872 4.77843C10.7364 4.63443 10.8647 4.35993 10.8343 4.09106L10.3978 4.34306C10.2634 4.42068 10.0913 4.37456 10.0136 4.24012C9.936 4.10568 9.98213 3.93356 10.1166 3.85594L10.5531 3.60394Z" fill="#145BFF"/>
</svg>
