<svg width="18" height="18" viewBox="0 0 18 18" fill="none" xmlns="http://www.w3.org/2000/svg">
<g clip-path="url(#clip0_142_1221)">
<path d="M11.725 11.7274H1.33952C1.10493 11.7274 0.914062 11.9183 0.914062 12.1528V15.6804C0.914062 15.915 1.10493 16.1059 1.33952 16.1059H3.10567V17.4199C3.10567 17.4673 3.13284 17.5104 3.17552 17.5309C3.19243 17.539 3.21061 17.543 3.22868 17.543C3.25621 17.543 3.28352 17.5337 3.30578 17.5158L5.06004 16.1059H11.725C11.9595 16.1059 12.1504 15.915 12.1504 15.6804V12.1528C12.1504 11.9183 11.9595 11.7274 11.725 11.7274H11.725ZM4.43222 14.8656H3.00923C2.87332 14.8656 2.76314 14.7554 2.76314 14.6195C2.76314 14.4836 2.87332 14.3734 3.00923 14.3734H4.43222C4.56813 14.3734 4.67831 14.4836 4.67831 14.6195C4.67831 14.7554 4.56813 14.8656 4.43222 14.8656ZM10.1513 14.8656H5.85517C5.71925 14.8656 5.60907 14.7554 5.60907 14.6195C5.60907 14.4836 5.71925 14.3734 5.85517 14.3734H10.1513C10.2872 14.3734 10.3974 14.4836 10.3974 14.6195C10.3974 14.7554 10.2872 14.8656 10.1513 14.8656ZM10.1513 13.4588H3.00923C2.87332 13.4588 2.76314 13.3487 2.76314 13.2127C2.76314 13.0768 2.87332 12.9666 3.00923 12.9666H10.1513C10.2872 12.9666 10.3974 13.0768 10.3974 13.2127C10.3974 13.3487 10.2872 13.4588 10.1513 13.4588ZM1.33952 4.83546H3.10567V6.14953C3.10567 6.19689 3.13284 6.24002 3.17552 6.26048C3.19243 6.26857 3.21061 6.27258 3.22868 6.27258C3.25621 6.27258 3.28352 6.26333 3.30578 6.24544L5.06004 4.83546H11.725C11.9595 4.83546 12.1504 4.6446 12.1504 4.41004V0.882492C12.1504 0.647895 11.9595 0.457031 11.725 0.457031H1.33952C1.10493 0.457031 0.914062 0.647895 0.914062 0.882492V4.41004C0.914062 4.6446 1.10493 4.83546 1.33952 4.83546ZM10.1513 3.59522H5.85517C5.71925 3.59522 5.60907 3.48504 5.60907 3.34912C5.60907 3.21321 5.71925 3.10303 5.85517 3.10303H10.1513C10.2872 3.10303 10.3974 3.21321 10.3974 3.34912C10.3974 3.48504 10.2872 3.59522 10.1513 3.59522ZM3.00923 1.69629H10.1513C10.2872 1.69629 10.3974 1.80647 10.3974 1.94238C10.3974 2.0783 10.2872 2.18848 10.1513 2.18848H3.00923C2.87332 2.18848 2.76314 2.0783 2.76314 1.94238C2.76314 1.80647 2.87332 1.69629 3.00923 1.69629ZM3.00923 3.10307H4.43222C4.56813 3.10307 4.67831 3.21325 4.67831 3.34916C4.67831 3.48507 4.56813 3.59525 4.43222 3.59525H3.00923C2.87332 3.59525 2.76314 3.48507 2.76314 3.34916C2.76314 3.21325 2.87332 3.10307 3.00923 3.10307ZM16.6603 6.09226H6.2749C6.0403 6.09226 5.84944 6.28312 5.84944 6.51769V10.0453C5.84944 10.2798 6.0403 10.4707 6.2749 10.4707H12.9398L14.6941 11.8807C14.7164 11.8986 14.7437 11.9078 14.7712 11.9078C14.7893 11.9078 14.8075 11.9038 14.8244 11.8957C14.8671 11.8753 14.8942 11.8321 14.8942 11.7848V10.4707H16.6604C16.8949 10.4707 17.0858 10.2798 17.0858 10.0453V6.51769C17.0858 6.28312 16.8949 6.09226 16.6604 6.09226H16.6603ZM9.36756 9.23045H7.94461C7.8087 9.23045 7.69852 9.12027 7.69852 8.98435C7.69852 8.84844 7.8087 8.73826 7.94461 8.73826H9.36756C9.50347 8.73826 9.61365 8.84844 9.61365 8.98435C9.61365 9.12027 9.50347 9.23045 9.36756 9.23045ZM15.0867 9.23045H10.7905C10.6546 9.23045 10.5444 9.12027 10.5444 8.98435C10.5444 8.84844 10.6546 8.73826 10.7905 8.73826H15.0867C15.2226 8.73826 15.3328 8.84844 15.3328 8.98435C15.3328 9.12027 15.2226 9.23045 15.0867 9.23045ZM15.0867 7.82367H7.94461C7.8087 7.82367 7.69852 7.71349 7.69852 7.57758C7.69852 7.44166 7.8087 7.33148 7.94461 7.33148H15.0867C15.2226 7.33148 15.3328 7.44166 15.3328 7.57758C15.3328 7.71349 15.2226 7.82367 15.0867 7.82367Z" fill="#145BFF"/>
</g>
<defs>
<clipPath id="clip0_142_1221">
<rect width="18" height="18" fill="white"/>
</clipPath>
</defs>
</svg>
