<svg width="19" height="19" viewBox="0 0 19 19" fill="none" xmlns="http://www.w3.org/2000/svg">
<g clip-path="url(#clip0_142_569)">
<path d="M8.57191 18.3335C9.93024 18.3335 11.0665 17.3652 11.3274 16.0835H5.81641C6.07747 17.3652 7.21373 18.3335 8.57191 18.3335Z" fill="#145BFF"/>
<path d="M13.8307 9.33276C13.8277 9.33276 13.8247 9.33345 13.8217 9.33345C10.9275 9.33345 8.57171 6.97839 8.57171 4.0835C8.57171 3.28767 8.75477 2.53539 9.07351 1.8589C8.90844 1.84325 8.74117 1.8335 8.57171 1.8335C5.67228 1.8335 3.32176 4.18388 3.32176 7.08345V9.17442C3.32176 10.6587 2.6715 12.0597 1.53071 13.0242C1.15045 13.349 0.981668 13.8664 1.11817 14.3712C1.2772 14.9585 1.85769 15.3335 2.46675 15.3335H14.673C15.312 15.3335 15.9143 14.9194 16.0439 14.2932C16.1444 13.8087 15.972 13.3249 15.5962 13.0092C14.5057 12.095 13.8749 10.7516 13.8307 9.33276Z" fill="#145BFF"/>
<path d="M17.5712 4.08354C17.5712 6.1546 15.8924 7.83345 13.8212 7.83345C11.7501 7.83345 10.0713 6.1546 10.0713 4.08354C10.0713 2.01248 11.7501 0.333496 13.8212 0.333496C15.8924 0.333496 17.5712 2.01248 17.5712 4.08354Z" fill="#145BFF"/>
</g>
<defs>
<clipPath id="clip0_142_569">
<rect width="18" height="18" fill="white" transform="translate(0.333008 0.333496)"/>
</clipPath>
</defs>
</svg>
