<svg width="18" height="18" viewBox="0 0 18 18" fill="none" xmlns="http://www.w3.org/2000/svg">
<g clip-path="url(#clip0_142_575)">
<path d="M9 0C4.02961 0 0 4.02961 0 9C0 13.9704 4.02961 18 9 18C13.9704 18 18 13.9704 18 9C18 4.02961 13.9704 0 9 0ZM13.7791 10.4337L13.4107 12.877C13.4028 12.9293 13.3805 12.9784 13.3464 13.0188C13.3122 13.0592 13.2676 13.0893 13.2173 13.1058C13.1671 13.1223 13.1132 13.1246 13.0618 13.1123C13.0103 13.1 12.9633 13.0737 12.9259 13.0363L12.453 12.5631C11.8366 13.1261 11.0853 13.5204 10.2718 13.7078C9.45823 13.8952 8.61008 13.8694 7.80948 13.6328C7.00887 13.3962 6.28292 12.9569 5.70195 12.3573C5.12097 11.7578 4.70466 11.0184 4.49332 10.2108C4.47142 10.1268 4.46808 10.0391 4.48352 9.95366C4.49896 9.86825 4.53282 9.78724 4.58274 9.71624C4.63266 9.64525 4.69744 9.58598 4.77258 9.54255C4.84772 9.49912 4.93142 9.47258 5.01785 9.46477C5.03613 9.46301 5.05301 9.46195 5.07199 9.46195C5.20512 9.46202 5.33442 9.50653 5.43938 9.58843C5.54434 9.67034 5.61895 9.78494 5.65137 9.91406C5.8057 10.5265 6.12527 11.0777 6.60586 11.5587C7.26272 12.214 8.1446 12.5944 9.07203 12.6225C9.99945 12.6506 10.9027 12.3242 11.598 11.7098L10.8432 10.9554C10.8058 10.9179 10.7795 10.8708 10.7673 10.8192C10.7551 10.7677 10.7575 10.7137 10.7741 10.6635C10.7908 10.6132 10.8211 10.5685 10.8617 10.5345C10.9023 10.5004 10.9515 10.4783 11.0039 10.4706L13.4536 10.1085C13.4979 10.1017 13.5431 10.1054 13.5857 10.1193C13.6283 10.1333 13.667 10.157 13.6987 10.1887C13.7304 10.2203 13.7542 10.259 13.7682 10.3016C13.7821 10.3441 13.7859 10.3894 13.7791 10.4337ZM13.4202 8.8193L13.4082 8.82141C13.2546 8.846 13.0975 8.80974 12.9702 8.72033C12.8429 8.63092 12.7555 8.49541 12.7266 8.34258C12.6033 7.69127 12.3048 7.0859 11.8631 6.59159C11.4215 6.09727 10.8534 5.73272 10.2201 5.53715C9.58672 5.34158 8.91203 5.32239 8.26858 5.48164C7.62512 5.64089 7.03727 5.97257 6.56824 6.44098C6.46176 6.54905 6.36196 6.66352 6.26941 6.78375L7.0077 7.52203C7.04512 7.55944 7.07142 7.6065 7.08368 7.65797C7.09594 7.70944 7.09367 7.76331 7.07712 7.81357C7.06058 7.86382 7.03041 7.9085 6.98997 7.94263C6.94953 7.97675 6.90041 7.99898 6.84809 8.00684L4.40508 8.37527C4.36091 8.38191 4.31579 8.3781 4.27336 8.36415C4.23093 8.3502 4.19236 8.3265 4.16074 8.29495C4.12912 8.2634 4.10533 8.22488 4.09129 8.18247C4.07725 8.14007 4.07334 8.09497 4.07988 8.05078L4.44199 5.60145C4.44974 5.54906 4.47189 5.49986 4.50597 5.45933C4.54005 5.4188 4.58472 5.38854 4.635 5.37191C4.68528 5.35529 4.73918 5.35296 4.79071 5.36518C4.84223 5.3774 4.88935 5.4037 4.9268 5.44113L5.40984 5.92418C5.50617 5.80863 5.60801 5.69684 5.71535 5.58879C6.1646 5.1369 6.69905 4.77865 7.28773 4.53479C7.87642 4.29093 8.50765 4.1663 9.14484 4.16813C10.2753 4.16769 11.3704 4.5623 12.2408 5.28372C13.1111 6.00515 13.7021 7.00804 13.9113 8.11898C13.9261 8.19731 13.925 8.2778 13.9081 8.3557C13.8913 8.4336 13.859 8.50735 13.8133 8.5726C13.7675 8.63785 13.7092 8.69329 13.6417 8.73566C13.5742 8.77803 13.4989 8.80646 13.4202 8.8193Z" fill="#145BFF"/>
</g>
<defs>
<clipPath id="clip0_142_575">
<rect width="18" height="18" fill="white"/>
</clipPath>
</defs>
</svg>
