<svg width="18" height="18" viewBox="0 0 18 18" fill="none" xmlns="http://www.w3.org/2000/svg">
<path fill-rule="evenodd" clip-rule="evenodd" d="M6.54261 3.58088C6.54261 2.89238 6.26923 2.232 5.78211 1.74488C5.29555 1.25775 4.63517 0.984375 3.94611 0.984375C3.25761 0.984375 2.59667 1.25775 2.11011 1.74488C1.62298 2.232 1.34961 2.89238 1.34961 3.58088V8.58206C1.34961 8.8155 1.53861 9.00394 1.77148 9.00394H6.12073C6.35417 9.00394 6.54261 8.8155 6.54261 8.58206V3.58088ZM5.69886 3.58088V8.16019H2.19336V3.58088C2.19336 3.11625 2.37786 2.67019 2.70636 2.34169C3.03542 2.01263 3.48092 1.82812 3.94611 1.82812C4.4113 1.82812 4.8568 2.01263 5.18586 2.34169C5.51436 2.67019 5.69886 3.11625 5.69886 3.58088Z" fill="#145BFF"/>
<path fill-rule="evenodd" clip-rule="evenodd" d="M16.6501 14.9085V15.4688C16.6501 16.3232 15.9577 17.0156 15.1033 17.0156H7.24513C6.83507 17.0156 6.44188 16.8525 6.15163 16.5628C5.86138 16.2726 5.69826 15.8788 5.69826 15.4688V14.9085H16.6501ZM5.69826 14.0647V3.65625C5.69826 2.9475 5.41701 2.268 4.91582 1.76681C4.57495 1.42594 4.15138 1.18687 3.69238 1.06875C3.7627 1.01587 3.85045 0.984375 3.94551 0.984375H13.9783C14.687 0.984375 15.3665 1.26563 15.8677 1.76681C16.3689 2.268 16.6501 2.9475 16.6501 3.65625V14.0647H5.69826ZM9.18632 11.5807L10.1853 10.5817C10.3496 10.4169 10.3496 10.1497 10.1853 9.98494C10.0205 9.82069 9.75332 9.82069 9.58851 9.98494L8.88763 10.6858L8.59457 10.3927C8.42976 10.2285 8.16257 10.2285 7.99832 10.3927C7.83351 10.5576 7.83351 10.8247 7.99832 10.9896L8.58951 11.5807C8.74982 11.7411 9.00688 11.7456 9.17226 11.5942L9.18632 11.5807ZM11.5274 11.4497H14.5801C14.813 11.4497 15.002 11.2607 15.002 11.0278C15.002 10.7949 14.813 10.6059 14.5801 10.6059H11.5274C11.2946 10.6059 11.1056 10.7949 11.1056 11.0278C11.1056 11.2607 11.2946 11.4497 11.5274 11.4497ZM9.18632 8.81269L10.1853 7.81369C10.3496 7.64887 10.3496 7.38169 10.1853 7.21688C10.0205 7.05206 9.75332 7.05206 9.58851 7.21688L8.88763 7.91775L8.59457 7.62469C8.42976 7.45988 8.16257 7.45988 7.99832 7.62469C7.83351 7.7895 7.83351 8.05669 7.99832 8.2215L8.58951 8.81269C8.74869 8.97187 9.00463 8.97694 9.17001 8.82788L9.18407 8.81437L9.18632 8.81269ZM11.5983 8.69906H14.6516C14.8844 8.69906 15.0734 8.51006 15.0734 8.27719C15.0734 8.04431 14.8844 7.85531 14.6516 7.85531H11.5983C11.3654 7.85531 11.1764 8.04431 11.1764 8.27719C11.1764 8.51006 11.3654 8.69906 11.5983 8.69906ZM9.18632 6.04463L10.1853 5.04506C10.3496 4.88081 10.3496 4.61363 10.1853 4.44881C10.0205 4.284 9.75332 4.284 9.58851 4.44881L8.88763 5.14969L8.59457 4.85662C8.42976 4.69181 8.16257 4.69181 7.99832 4.85662C7.83351 5.02087 7.83351 5.28863 7.99832 5.45288L8.58951 6.04463C8.74645 6.20156 8.99619 6.20887 9.16213 6.06656L9.17619 6.05419L9.18632 6.04463ZM11.456 5.94844H14.5093C14.7421 5.94844 14.9311 5.75944 14.9311 5.52656C14.9311 5.29369 14.7421 5.10469 14.5093 5.10469H11.456C11.2231 5.10469 11.0341 5.29369 11.0341 5.52656C11.0341 5.75944 11.2231 5.94844 11.456 5.94844Z" fill="#145BFF"/>
</svg>
