<svg width="117" height="40" viewBox="0 0 117 40" fill="none" xmlns="http://www.w3.org/2000/svg">
<path d="M0 12C0 6.34315 0 3.51472 1.75736 1.75736C3.51472 0 6.34315 0 12 0H105C110.657 0 113.485 0 115.243 1.75736C117 3.51472 117 6.34315 117 12V28C117 33.6569 117 36.4853 115.243 38.2426C113.485 40 110.657 40 105 40H12C6.34315 40 3.51472 40 1.75736 38.2426C0 36.4853 0 33.6569 0 28V12Z" fill="white"/>
<path d="M79.4865 19.2009V21.4919H78.0864V22.9943H79.4865V28.0993C79.4865 29.8425 80.2554 30.5397 82.1897 30.5397C82.5296 30.5397 82.8533 30.4982 83.1366 30.4484V28.9626C82.8938 28.9875 82.74 29.0041 82.473 29.0041C81.607 29.0041 81.2266 28.589 81.2266 27.6428V22.9943H83.1366V21.4919H81.2266V19.2009H79.4865Z" fill="black"/>
<path d="M88.0641 30.6642C90.6378 30.6642 92.216 28.8962 92.216 25.966C92.216 23.0524 90.6297 21.2761 88.0641 21.2761C85.4904 21.2761 83.9042 23.0524 83.9042 25.966C83.9042 28.8962 85.4824 30.6642 88.0641 30.6642ZM88.0641 29.0788C86.5507 29.0788 85.7009 27.9416 85.7009 25.966C85.7009 24.007 86.5507 22.8615 88.0641 22.8615C89.5695 22.8615 90.4273 24.007 90.4273 25.966C90.4273 27.9333 89.5695 29.0788 88.0641 29.0788Z" fill="black"/>
<path d="M93.5662 30.4899H95.3063V25.1525C95.3063 23.8825 96.237 23.0275 97.5562 23.0275C97.8637 23.0275 98.3817 23.0856 98.5274 23.1354V21.3757C98.3412 21.3259 98.0094 21.301 97.7504 21.301C96.6012 21.301 95.6219 21.9484 95.371 22.8366H95.2415V21.4504H93.5662V30.4899Z" fill="black"/>
<path d="M102.848 22.7951C104.135 22.7951 104.976 23.7165 105.017 25.1359H100.566C100.663 23.7248 101.561 22.7951 102.848 22.7951ZM105.009 28.0495C104.685 28.7551 103.965 29.1452 102.913 29.1452C101.521 29.1452 100.622 28.1408 100.566 26.5554V26.4557H106.789V25.8332C106.789 22.9943 105.308 21.2761 102.856 21.2761C100.371 21.2761 98.7932 23.1105 98.7932 25.9992C98.7932 28.8879 100.339 30.6642 102.864 30.6642C104.879 30.6642 106.288 29.6681 106.684 28.0495H105.009Z" fill="black"/>
<path d="M68.0755 27.1518C68.2098 29.3715 70.0133 30.791 72.6976 30.791C75.5664 30.791 77.3615 29.3026 77.3615 26.9281C77.3615 25.0611 76.3382 24.0287 73.8552 23.435L72.5214 23.0995C70.9444 22.7209 70.3069 22.2133 70.3069 21.3272C70.3069 20.2087 71.2967 19.4774 72.7815 19.4774C74.1907 19.4774 75.1638 20.1915 75.3399 21.3358H77.1686C77.0596 19.2451 75.2644 17.7739 72.8066 17.7739C70.1643 17.7739 68.4027 19.2451 68.4027 21.4562C68.4027 23.2802 69.4009 24.3642 71.5903 24.889L73.1505 25.2762C74.7527 25.6633 75.4574 26.2312 75.4574 27.1776C75.4574 28.2788 74.3501 29.0789 72.8402 29.0789C71.2212 29.0789 70.0972 28.3304 69.9378 27.1518H68.0755Z" fill="black"/>
<path d="M50.0504 21.301C48.8526 21.301 47.8167 21.9152 47.2825 22.9445H47.153V21.4504H45.4777V33.4948H47.2178V29.1203H47.3553C47.8167 30.0749 48.8121 30.6393 50.0666 30.6393C52.2922 30.6393 53.7086 28.8381 53.7086 25.966C53.7086 23.0939 52.2922 21.301 50.0504 21.301ZM49.5567 29.0373C48.0999 29.0373 47.1854 27.8586 47.1854 25.9743C47.1854 24.0817 48.0999 22.903 49.5648 22.903C51.0378 22.903 51.9199 24.0568 51.9199 25.966C51.9199 27.8835 51.0378 29.0373 49.5567 29.0373Z" fill="black"/>
<path d="M59.7973 21.301C58.5995 21.301 57.5635 21.9152 57.0294 22.9445H56.8999V21.4504H55.2246V33.4948H56.9646V29.1203H57.1022C57.5635 30.0749 58.559 30.6393 59.8135 30.6393C62.0391 30.6393 63.4554 28.8381 63.4554 25.966C63.4554 23.0939 62.0391 21.301 59.7973 21.301ZM59.3036 29.0373C57.8468 29.0373 56.9323 27.8586 56.9323 25.9743C56.9323 24.0817 57.8468 22.903 59.3117 22.903C60.7847 22.903 61.6668 24.0568 61.6668 25.966C61.6668 27.8835 60.7847 29.0373 59.3036 29.0373Z" fill="black"/>
<path d="M42.3558 30.4899H44.3522L39.9818 18.075H37.9602L33.5898 30.4899H35.5192L36.6348 27.1948H41.2485L42.3558 30.4899ZM38.8746 20.3292H39.0172L40.7703 25.5773H37.113L38.8746 20.3292Z" fill="black"/>
<path d="M34.7598 8.71069V14.6997H36.8681C38.6081 14.6997 39.6157 13.5999 39.6157 11.6865C39.6157 9.80225 38.6 8.71069 36.8681 8.71069H34.7598ZM35.6662 9.55737H36.7669C37.9768 9.55737 38.6931 10.3459 38.6931 11.699C38.6931 13.0728 37.989 13.853 36.7669 13.853H35.6662V9.55737Z" fill="black"/>
<path d="M42.7017 14.7869C43.9885 14.7869 44.7776 13.9028 44.7776 12.4377C44.7776 10.981 43.9845 10.0928 42.7017 10.0928C41.4149 10.0928 40.6217 10.981 40.6217 12.4377C40.6217 13.9028 41.4108 14.7869 42.7017 14.7869ZM42.7017 13.9941C41.945 13.9941 41.5201 13.4255 41.5201 12.4377C41.5201 11.4583 41.945 10.8855 42.7017 10.8855C43.4544 10.8855 43.8833 11.4583 43.8833 12.4377C43.8833 13.4214 43.4544 13.9941 42.7017 13.9941Z" fill="black"/>
<path d="M51.4974 10.1799H50.6274L49.8424 13.6289H49.7736L48.8671 10.1799H48.0335L47.1271 13.6289H47.0623L46.2732 10.1799H45.3911L46.6051 14.6997H47.4994L48.4058 11.3711H48.4746L49.3851 14.6997H50.2875L51.4974 10.1799Z" fill="black"/>
<path d="M52.4994 14.6997H53.3694V12.0559C53.3694 11.3503 53.7781 10.9104 54.4215 10.9104C55.065 10.9104 55.3725 11.2715 55.3725 11.9978V14.6997H56.2425V11.7737C56.2425 10.6987 55.7003 10.0928 54.7169 10.0928C54.0533 10.0928 53.6163 10.3958 53.4018 10.8979H53.337V10.1799H52.4994V14.6997Z" fill="black"/>
<path d="M57.6127 14.6997H58.4827V8.41602H57.6127V14.6997Z" fill="black"/>
<path d="M61.7548 14.7869C63.0417 14.7869 63.8308 13.9028 63.8308 12.4377C63.8308 10.981 63.0376 10.0928 61.7548 10.0928C60.468 10.0928 59.6749 10.981 59.6749 12.4377C59.6749 13.9028 60.464 14.7869 61.7548 14.7869ZM61.7548 13.9941C60.9981 13.9941 60.5732 13.4255 60.5732 12.4377C60.5732 11.4583 60.9981 10.8855 61.7548 10.8855C62.5075 10.8855 62.9365 11.4583 62.9365 12.4377C62.9365 13.4214 62.5075 13.9941 61.7548 13.9941Z" fill="black"/>
<path d="M66.423 14.0232C65.9496 14.0232 65.6056 13.7866 65.6056 13.3799C65.6056 12.9814 65.8808 12.7698 66.4878 12.7283L67.5642 12.6577V13.0354C67.5642 13.5957 67.0786 14.0232 66.423 14.0232ZM66.2005 14.7744C66.7791 14.7744 67.2607 14.5171 67.5237 14.0647H67.5925V14.6997H68.4302V11.6118C68.4302 10.6572 67.807 10.0928 66.7023 10.0928C65.7027 10.0928 64.9905 10.5908 64.9015 11.3669H65.7432C65.8403 11.0474 66.1762 10.8647 66.6618 10.8647C67.2566 10.8647 67.5642 11.1345 67.5642 11.6118V12.002L66.3704 12.0725C65.3223 12.1389 64.7315 12.6079 64.7315 13.4214C64.7315 14.2473 65.3507 14.7744 66.2005 14.7744Z" fill="black"/>
<path d="M71.3826 14.7744C71.9896 14.7744 72.5035 14.4797 72.7665 13.9858H72.8353V14.6997H73.6689V8.41602H72.7989V10.8979H72.7342C72.4954 10.3999 71.9855 10.1052 71.3826 10.1052C70.2698 10.1052 69.5535 11.01 69.5535 12.4377C69.5535 13.8696 70.2617 14.7744 71.3826 14.7744ZM71.6294 10.9062C72.3578 10.9062 72.8151 11.4998 72.8151 12.4419C72.8151 13.3882 72.3619 13.9734 71.6294 13.9734C70.8929 13.9734 70.4519 13.3965 70.4519 12.4377C70.4519 11.4873 70.897 10.9062 71.6294 10.9062Z" fill="black"/>
<path d="M79.3107 14.7869C80.5976 14.7869 81.3867 13.9028 81.3867 12.4377C81.3867 10.981 80.5935 10.0928 79.3107 10.0928C78.0239 10.0928 77.2308 10.981 77.2308 12.4377C77.2308 13.9028 78.0199 14.7869 79.3107 14.7869ZM79.3107 13.9941C78.554 13.9941 78.1291 13.4255 78.1291 12.4377C78.1291 11.4583 78.554 10.8855 79.3107 10.8855C80.0634 10.8855 80.4924 11.4583 80.4924 12.4377C80.4924 13.4214 80.0634 13.9941 79.3107 13.9941Z" fill="black"/>
<path d="M82.5383 14.6997H83.4084V12.0559C83.4084 11.3503 83.8171 10.9104 84.4605 10.9104C85.1039 10.9104 85.4114 11.2715 85.4114 11.9978V14.6997H86.2815V11.7737C86.2815 10.6987 85.7392 10.0928 84.7559 10.0928C84.0922 10.0928 83.6552 10.3958 83.4407 10.8979H83.376V10.1799H82.5383V14.6997Z" fill="black"/>
<path d="M90.2884 9.05518V10.2007H89.5884V10.9519H90.2884V13.5044C90.2884 14.376 90.6729 14.7246 91.64 14.7246C91.81 14.7246 91.9718 14.7039 92.1135 14.679V13.936C91.9921 13.9485 91.9152 13.9568 91.7817 13.9568C91.3487 13.9568 91.1585 13.7493 91.1585 13.2761V10.9519H92.1135V10.2007H91.1585V9.05518H90.2884Z" fill="black"/>
<path d="M93.2813 14.6997H94.1514V12.0601C94.1514 11.3752 94.5479 10.9146 95.2601 10.9146C95.8752 10.9146 96.203 11.2798 96.203 12.002V14.6997H97.073V11.782C97.073 10.707 96.4944 10.0969 95.5555 10.0969C94.8919 10.0969 94.4265 10.3999 94.2121 10.9062H94.1433V8.41602H93.2813V14.6997Z" fill="black"/>
<path d="M100.212 10.8523C100.855 10.8523 101.276 11.313 101.296 12.0227H99.0704C99.119 11.3171 99.5682 10.8523 100.212 10.8523ZM101.292 13.4795C101.13 13.8323 100.77 14.0273 100.244 14.0273C99.5479 14.0273 99.0988 13.5251 99.0704 12.7324V12.6826H102.182V12.3713C102.182 10.9519 101.442 10.0928 100.216 10.0928C98.9733 10.0928 98.1842 11.01 98.1842 12.4543C98.1842 13.8987 98.9571 14.7869 100.22 14.7869C101.227 14.7869 101.931 14.2888 102.13 13.4795H101.292Z" fill="black"/>
<path d="M24.15 20.3006C24.1712 18.6196 25.0514 17.029 26.4477 16.1485C25.5668 14.8582 24.0914 14.0401 22.5563 13.9908C20.919 13.8146 19.3318 14.9957 18.4975 14.9957C17.647 14.9957 16.3624 14.0083 14.9792 14.0375C13.1762 14.0973 11.4953 15.1487 10.6181 16.7654C8.73244 20.1138 10.139 25.0349 11.9453 27.7415C12.849 29.0668 13.9052 30.5473 15.2872 30.4948C16.6396 30.4372 17.1447 29.6103 18.7771 29.6103C20.3944 29.6103 20.8683 30.4948 22.2783 30.4614C23.7295 30.4372 24.6438 29.1302 25.5158 27.7923C26.1652 26.8479 26.6648 25.8042 26.9963 24.6997C25.2909 23.96 24.152 22.1997 24.15 20.3006Z" fill="black"/>
<path d="M21.4867 12.2108C22.2779 11.2366 22.6677 9.98445 22.5733 8.72021C21.3645 8.85044 20.2479 9.44299 19.4459 10.3798C18.6618 11.2952 18.2537 12.5253 18.3308 13.7412C19.5401 13.754 20.7289 13.1775 21.4867 12.2108Z" fill="black"/>
</svg>
