<svg width="132" height="40" viewBox="0 0 132 40" fill="none" xmlns="http://www.w3.org/2000/svg">
<rect width="132" height="40" rx="6" fill="white"/>
<path d="M66.6208 21.7509C64.3211 21.7509 62.4467 23.5399 62.4467 26.0039C62.4467 28.4529 64.3211 30.2569 66.6208 30.2569C68.9215 30.2569 70.7959 28.4529 70.7959 26.0039C70.7949 23.5399 68.9206 21.7509 66.6208 21.7509ZM66.6208 28.5829C65.3605 28.5829 64.2742 27.5199 64.2742 26.0049C64.2742 24.4739 65.3614 23.4269 66.6208 23.4269C67.8812 23.4269 68.9675 24.4739 68.9675 26.0049C68.9675 27.5189 67.8812 28.5829 66.6208 28.5829ZM57.5138 21.7509C55.2141 21.7509 53.3397 23.5399 53.3397 26.0039C53.3397 28.4529 55.2141 30.2569 57.5138 30.2569C59.8145 30.2569 61.6889 28.4529 61.6889 26.0039C61.6889 23.5399 59.8145 21.7509 57.5138 21.7509ZM57.5138 28.5829C56.2534 28.5829 55.1671 27.5199 55.1671 26.0049C55.1671 24.4739 56.2544 23.4269 57.5138 23.4269C58.7741 23.4269 59.8605 24.4739 59.8605 26.0049C59.8614 27.5189 58.7741 28.5829 57.5138 28.5829ZM46.682 23.0569V24.8609H50.904C50.7779 25.8759 50.4474 26.6169 49.9429 27.1319C49.3288 27.7599 48.3677 28.4529 46.682 28.4529C44.083 28.4529 42.0512 26.3099 42.0512 23.6519C42.0512 20.9939 44.083 18.8509 46.682 18.8509C48.0841 18.8509 49.1078 19.4149 49.8637 20.1399L51.1084 18.8669C50.0524 17.8359 48.6512 17.0469 46.682 17.0469C43.1219 17.0469 40.1289 20.0109 40.1289 23.6519C40.1289 27.2929 43.1219 30.2569 46.682 30.2569C48.6033 30.2569 50.0534 29.6119 51.1866 28.4039C52.3521 27.2119 52.7149 25.5359 52.7149 24.1829C52.7149 23.7649 52.6836 23.3779 52.62 23.0559H46.682V23.0569ZM90.9831 24.4579C90.637 23.5079 89.581 21.7509 87.423 21.7509C85.2807 21.7509 83.5002 23.4749 83.5002 26.0039C83.5002 28.3879 85.2651 30.2569 87.6274 30.2569C89.5331 30.2569 90.636 29.0649 91.0936 28.3719L89.6758 27.4049C89.2036 28.1139 88.5573 28.5809 87.6274 28.5809C86.6985 28.5809 86.0365 28.1459 85.6112 27.2919L91.1718 24.9399L90.9831 24.4579ZM85.312 25.8759C85.2651 24.2319 86.5567 23.3949 87.4866 23.3949C88.2111 23.3949 88.8252 23.7659 89.0305 24.2969L85.312 25.8759ZM80.7917 29.9999H82.6182V17.4989H80.7917V29.9999ZM77.7978 22.7019H77.7352C77.3255 22.2019 76.5374 21.7509 75.546 21.7509C73.4662 21.7509 71.5606 23.6199 71.5606 26.0209C71.5606 28.4049 73.4662 30.2579 75.546 30.2579C76.5384 30.2579 77.3255 29.8069 77.7352 29.2919H77.7978V29.9039C77.7978 31.5309 76.9471 32.4009 75.5773 32.4009C74.4587 32.4009 73.7654 31.5799 73.4819 30.8869L71.891 31.5639C72.3477 32.6909 73.5601 34.0769 75.5773 34.0769C77.7196 34.0769 79.5314 32.7879 79.5314 29.6459V22.0099H77.7988V22.7019H77.7978ZM75.7034 28.5829C74.443 28.5829 73.388 27.5029 73.388 26.0209C73.388 24.5219 74.443 23.4269 75.7034 23.4269C76.9471 23.4269 77.9239 24.5219 77.9239 26.0209C77.9239 27.5029 76.9471 28.5829 75.7034 28.5829ZM99.5426 17.4989H95.171V29.9999H96.9945V25.2639H99.5416C101.564 25.2639 103.552 23.7669 103.552 21.3819C103.552 18.9969 101.565 17.4989 99.5426 17.4989ZM99.5895 23.5239H96.9945V19.2389H99.5895C100.954 19.2389 101.728 20.3939 101.728 21.3819C101.728 22.3499 100.954 23.5239 99.5895 23.5239ZM110.865 21.7289C109.544 21.7289 108.176 22.3239 107.61 23.6429L109.229 24.3339C109.576 23.6429 110.221 23.4169 110.897 23.4169C111.84 23.4169 112.799 23.9959 112.815 25.0249V25.1539C112.484 24.9609 111.777 24.6719 110.912 24.6719C109.167 24.6719 107.389 25.6529 107.389 27.4859C107.389 29.1589 108.821 30.2359 110.424 30.2359C111.65 30.2359 112.327 29.6729 112.751 29.0129H112.814V29.9779H114.576V25.1849C114.577 22.9669 112.956 21.7289 110.865 21.7289ZM110.644 28.5799C110.048 28.5799 109.214 28.2739 109.214 27.5179C109.214 26.5529 110.252 26.1829 111.149 26.1829C111.95 26.1829 112.328 26.3599 112.815 26.6009C112.673 27.7599 111.698 28.5799 110.644 28.5799ZM120.992 22.0019L118.901 27.4219H118.838L116.667 22.0019H114.702L117.957 29.5769L116.101 33.7909H118.004L123.021 22.0019H120.992ZM104.56 29.9999H106.383V17.4989H104.56V29.9999Z" fill="black"/>
<path d="M46.3648 10.2432C46.3648 11.0812 46.1223 11.7482 45.6363 12.2462C45.0849 12.8382 44.3652 13.1342 43.4813 13.1342C42.6346 13.1342 41.9139 12.8342 41.3224 12.2342C40.7299 11.6332 40.4336 10.8892 40.4336 10.0012C40.4336 9.11219 40.7299 8.36819 41.3224 7.76819C41.9139 7.16719 42.6346 6.86719 43.4813 6.86719C43.9018 6.86719 44.3036 6.95119 44.685 7.11819C45.0673 7.28619 45.3733 7.50919 45.6021 7.78819L45.0868 8.31619C44.6987 7.84119 44.1638 7.60419 43.4803 7.60419C42.8624 7.60419 42.3285 7.82619 41.8778 8.27019C41.427 8.71419 41.2021 9.29119 41.2021 10.0002C41.2021 10.7092 41.427 11.2862 41.8778 11.7302C42.3285 12.1742 42.8624 12.3962 43.4803 12.3962C44.1355 12.3962 44.682 12.1732 45.1191 11.7262C45.4027 11.4352 45.5669 11.0302 45.6109 10.5112H43.4803V9.79019H46.3227C46.3521 9.94719 46.3648 10.0982 46.3648 10.2432Z" fill="black"/>
<path d="M50.8724 7.73724H48.2012V9.63924H50.6104V10.3602H48.2012V12.2622H50.8724V13.0002H47.4473V7.00024H50.8724V7.73724Z" fill="black"/>
<path d="M54.0511 13.0002H53.2972V7.73724H51.6585V7.00024H55.6898V7.73724H54.0511V13.0002Z" fill="black"/>
<path d="M58.6065 13.0002V7.00024H59.3604V13.0002H58.6065Z" fill="black"/>
<path d="M62.7036 13.0002H61.9497V7.73724H60.3109V7.00024H64.3423V7.73724H62.7036V13.0002Z" fill="black"/>
<path d="M71.9736 12.2252C71.3968 12.8312 70.68 13.1342 69.8225 13.1342C68.965 13.1342 68.2483 12.8312 67.6724 12.2252C67.0955 11.6192 66.808 10.8772 66.808 10.0002C66.808 9.12323 67.0955 8.38123 67.6724 7.77523C68.2483 7.16923 68.965 6.86523 69.8225 6.86523C70.6752 6.86523 71.3909 7.17023 71.9697 7.77923C72.5486 8.38823 72.838 9.12823 72.838 10.0002C72.838 10.8772 72.5496 11.6192 71.9736 12.2252ZM68.2288 11.7222C68.6629 12.1722 69.1938 12.3962 69.8225 12.3962C70.4512 12.3962 70.9832 12.1712 71.4163 11.7222C71.8504 11.2722 72.0685 10.6982 72.0685 10.0002C72.0685 9.30223 71.8504 8.72823 71.4163 8.27823C70.9832 7.82823 70.4512 7.60423 69.8225 7.60423C69.1938 7.60423 68.6629 7.82923 68.2288 8.27823C67.7956 8.72823 67.5776 9.30223 67.5776 10.0002C67.5776 10.6982 67.7956 11.2722 68.2288 11.7222Z" fill="black"/>
<path d="M73.896 13.0002V7.00024H74.8131L77.6643 11.6672H77.6966L77.6643 10.5112V7.00024H78.4182V13.0002H77.6311L74.6479 8.10625H74.6156L74.6479 9.26224V13.0002H73.896Z" fill="black"/>
<path d="M46.3648 10.2432C46.3648 11.0812 46.1223 11.7482 45.6363 12.2462C45.0849 12.8382 44.3652 13.1342 43.4813 13.1342C42.6346 13.1342 41.9139 12.8342 41.3224 12.2342C40.7299 11.6332 40.4336 10.8892 40.4336 10.0012C40.4336 9.11219 40.7299 8.36819 41.3224 7.76819C41.9139 7.16719 42.6346 6.86719 43.4813 6.86719C43.9018 6.86719 44.3036 6.95119 44.685 7.11819C45.0673 7.28619 45.3733 7.50919 45.6021 7.78819L45.0868 8.31619C44.6987 7.84119 44.1638 7.60419 43.4803 7.60419C42.8624 7.60419 42.3285 7.82619 41.8778 8.27019C41.427 8.71419 41.2021 9.29119 41.2021 10.0002C41.2021 10.7092 41.427 11.2862 41.8778 11.7302C42.3285 12.1742 42.8624 12.3962 43.4803 12.3962C44.1355 12.3962 44.682 12.1732 45.1191 11.7262C45.4027 11.4352 45.5669 11.0302 45.6109 10.5112H43.4803V9.79019H46.3227C46.3521 9.94719 46.3648 10.0982 46.3648 10.2432Z" stroke="black" stroke-width="0.218182" stroke-miterlimit="10"/>
<path d="M50.8724 7.73724H48.2012V9.63924H50.6104V10.3602H48.2012V12.2622H50.8724V13.0002H47.4473V7.00024H50.8724V7.73724Z" stroke="black" stroke-width="0.218182" stroke-miterlimit="10"/>
<path d="M54.0511 13.0002H53.2972V7.73724H51.6585V7.00024H55.6898V7.73724H54.0511V13.0002Z" stroke="black" stroke-width="0.218182" stroke-miterlimit="10"/>
<path d="M58.6065 13.0002V7.00024H59.3604V13.0002H58.6065Z" stroke="black" stroke-width="0.218182" stroke-miterlimit="10"/>
<path d="M62.7036 13.0002H61.9497V7.73724H60.3109V7.00024H64.3423V7.73724H62.7036V13.0002Z" stroke="black" stroke-width="0.218182" stroke-miterlimit="10"/>
<path d="M71.9736 12.2252C71.3968 12.8312 70.68 13.1342 69.8225 13.1342C68.965 13.1342 68.2483 12.8312 67.6724 12.2252C67.0955 11.6192 66.808 10.8772 66.808 10.0002C66.808 9.12323 67.0955 8.38123 67.6724 7.77523C68.2483 7.16923 68.965 6.86523 69.8225 6.86523C70.6752 6.86523 71.3909 7.17023 71.9697 7.77923C72.5486 8.38823 72.838 9.12823 72.838 10.0002C72.838 10.8772 72.5496 11.6192 71.9736 12.2252ZM68.2288 11.7222C68.6629 12.1722 69.1938 12.3962 69.8225 12.3962C70.4512 12.3962 70.9832 12.1712 71.4163 11.7222C71.8504 11.2722 72.0685 10.6982 72.0685 10.0002C72.0685 9.30223 71.8504 8.72823 71.4163 8.27823C70.9832 7.82823 70.4512 7.60423 69.8225 7.60423C69.1938 7.60423 68.6629 7.82923 68.2288 8.27823C67.7956 8.72823 67.5776 9.30223 67.5776 10.0002C67.5776 10.6982 67.7956 11.2722 68.2288 11.7222Z" stroke="black" stroke-width="0.218182" stroke-miterlimit="10"/>
<path d="M73.896 13.0002V7.00024H74.8131L77.6643 11.6672H77.6966L77.6643 10.5112V7.00024H78.4182V13.0002H77.6311L74.6479 8.10625H74.6156L74.6479 9.26224V13.0002H73.896Z" stroke="black" stroke-width="0.218182" stroke-miterlimit="10"/>
<g filter="url(#filter0_ii_269_1651)">
<path d="M10.2037 7.53784C9.91916 7.84584 9.75098 8.32384 9.75098 8.94284V31.0588C9.75098 31.6788 9.91916 32.1558 10.2037 32.4638L10.276 32.5358L22.3897 20.1468V20.0008V19.8548L10.276 7.46484L10.2037 7.53784Z" fill="url(#paint0_linear_269_1651)"/>
<path d="M26.4279 24.2781L22.3906 20.1471V20.0011V19.8551L26.4288 15.7251L26.5198 15.7781L31.304 18.5581C32.67 19.3521 32.67 20.6511 31.304 21.4461L26.5198 24.2261L26.4279 24.2781Z" fill="url(#paint1_linear_269_1651)"/>
<g filter="url(#filter1_i_269_1651)">
<path d="M26.5183 24.225L22.3882 20.001L10.2031 32.464C10.6529 32.952 11.397 33.012 12.2349 32.526L26.5183 24.225Z" fill="url(#paint2_linear_269_1651)"/>
</g>
<path d="M26.5183 15.7772L12.2349 7.47719C11.397 6.99019 10.6529 7.05119 10.2031 7.53919L22.3892 20.0022L26.5183 15.7772Z" fill="url(#paint3_linear_269_1651)"/>
</g>
<defs>
<filter id="filter0_ii_269_1651" x="9.75098" y="7.14111" width="22.5771" height="25.7207" filterUnits="userSpaceOnUse" color-interpolation-filters="sRGB">
<feFlood flood-opacity="0" result="BackgroundImageFix"/>
<feBlend mode="normal" in="SourceGraphic" in2="BackgroundImageFix" result="shape"/>
<feColorMatrix in="SourceAlpha" type="matrix" values="0 0 0 0 0 0 0 0 0 0 0 0 0 0 0 0 0 0 127 0" result="hardAlpha"/>
<feOffset dy="-0.163636"/>
<feComposite in2="hardAlpha" operator="arithmetic" k2="-1" k3="1"/>
<feColorMatrix type="matrix" values="0 0 0 0 0 0 0 0 0 0 0 0 0 0 0 0 0 0 0.12 0"/>
<feBlend mode="normal" in2="shape" result="effect1_innerShadow_269_1651"/>
<feColorMatrix in="SourceAlpha" type="matrix" values="0 0 0 0 0 0 0 0 0 0 0 0 0 0 0 0 0 0 127 0" result="hardAlpha"/>
<feOffset dy="0.163636"/>
<feComposite in2="hardAlpha" operator="arithmetic" k2="-1" k3="1"/>
<feColorMatrix type="matrix" values="0 0 0 0 1 0 0 0 0 1 0 0 0 0 1 0 0 0 0.25 0"/>
<feBlend mode="normal" in2="effect1_innerShadow_269_1651" result="effect2_innerShadow_269_1651"/>
</filter>
<filter id="filter1_i_269_1651" x="10.2031" y="20.001" width="16.3154" height="12.8608" filterUnits="userSpaceOnUse" color-interpolation-filters="sRGB">
<feFlood flood-opacity="0" result="BackgroundImageFix"/>
<feBlend mode="normal" in="SourceGraphic" in2="BackgroundImageFix" result="shape"/>
<feColorMatrix in="SourceAlpha" type="matrix" values="0 0 0 0 0 0 0 0 0 0 0 0 0 0 0 0 0 0 127 0" result="hardAlpha"/>
<feOffset dy="-0.163636"/>
<feComposite in2="hardAlpha" operator="arithmetic" k2="-1" k3="1"/>
<feColorMatrix type="matrix" values="0 0 0 0 0 0 0 0 0 0 0 0 0 0 0 0 0 0 0.08 0"/>
<feBlend mode="normal" in2="shape" result="effect1_innerShadow_269_1651"/>
</filter>
<linearGradient id="paint0_linear_269_1651" x1="21.3159" y1="8.70884" x2="4.53818" y2="25.1138" gradientUnits="userSpaceOnUse">
<stop stop-color="#00A0FF"/>
<stop offset="0.0066" stop-color="#00A1FF"/>
<stop offset="0.2601" stop-color="#00BEFF"/>
<stop offset="0.5122" stop-color="#00D2FF"/>
<stop offset="0.7604" stop-color="#00DFFF"/>
<stop offset="1" stop-color="#00E3FF"/>
</linearGradient>
<linearGradient id="paint1_linear_269_1651" x1="33.0821" y1="20.0011" x2="9.42392" y2="20.0011" gradientUnits="userSpaceOnUse">
<stop stop-color="#FFE000"/>
<stop offset="0.4087" stop-color="#FFBD00"/>
<stop offset="0.7754" stop-color="#FFA500"/>
<stop offset="1" stop-color="#FF9C00"/>
</linearGradient>
<linearGradient id="paint2_linear_269_1651" x1="24.2754" y1="22.2949" x2="1.52266" y2="44.542" gradientUnits="userSpaceOnUse">
<stop stop-color="#FF3A44"/>
<stop offset="1" stop-color="#C31162"/>
</linearGradient>
<linearGradient id="paint3_linear_269_1651" x1="7.13427" y1="0.176989" x2="17.294" y2="10.111" gradientUnits="userSpaceOnUse">
<stop stop-color="#32A071"/>
<stop offset="0.0685" stop-color="#2DA771"/>
<stop offset="0.4762" stop-color="#15CF74"/>
<stop offset="0.8009" stop-color="#06E775"/>
<stop offset="1" stop-color="#00F076"/>
</linearGradient>
</defs>
</svg>
