<svg width="18" height="18" viewBox="0 0 18 18" fill="none" xmlns="http://www.w3.org/2000/svg">
<path d="M13.8191 4.71526L15.4803 4.17708C16.1316 3.96609 16.7019 4.66609 16.3635 5.26102L11.4941 13.8203C11.295 14.1702 10.8552 14.3005 10.4976 14.1156L8.51562 13.0909C8.59643 12.9508 8.67689 12.8115 8.75673 12.6735L8.75866 12.6702L8.75934 12.6691L8.75965 12.6686L8.7605 12.6673C8.85981 12.519 9.5146 11.5417 10.0988 10.6749C12.3036 10.1752 13.9496 8.20413 13.9496 5.84878C13.9496 5.45875 13.9044 5.07927 13.8191 4.71526Z" fill="#007AFF"/>
<path d="M8.69844 5.62413V4.64941H8.11672C7.94466 4.64941 7.83633 4.71228 7.76716 4.792C7.69273 4.8778 7.64844 5.00188 7.64844 5.13676C7.64844 5.27166 7.69273 5.39572 7.76716 5.48152C7.83633 5.56126 7.94466 5.62413 8.11672 5.62413H8.69844Z" fill="#007AFF"/>
<path d="M9.29688 6.22363H9.87857C10.0507 6.22363 10.159 6.28651 10.2282 6.36624C10.3026 6.45204 10.3469 6.57612 10.3469 6.711C10.3469 6.84589 10.3026 6.96996 10.2282 7.05576C10.159 7.1355 10.0507 7.19836 9.87857 7.19836H9.29688V6.22363Z" fill="#007AFF"/>
<path fill-rule="evenodd" clip-rule="evenodd" d="M13.3484 5.84875C13.3484 3.5138 11.3767 1.5 8.99844 1.5C6.59599 1.5 4.64844 3.447 4.64844 5.84875C4.64844 7.29356 5.35321 8.57379 6.43783 9.36462C7.15621 9.88841 8.04121 10.1975 8.99844 10.1975C11.3388 10.1975 13.3484 8.22674 13.3484 5.84875ZM7.31386 4.39871C7.50079 4.18321 7.7766 4.04927 8.11672 4.04927H8.69844V3.74936C8.69844 3.58371 8.83275 3.44945 8.99844 3.44945C9.16413 3.44945 9.29844 3.58371 9.29844 3.74936V4.04927H10.3192C10.4848 4.04927 10.6192 4.18354 10.6192 4.34917C10.6192 4.51482 10.4848 4.6491 10.3192 4.6491H9.29844V5.62382H9.88014C10.2203 5.62382 10.4961 5.75777 10.683 5.97326C10.8647 6.18269 10.9484 6.45225 10.9484 6.711C10.9484 6.96975 10.8647 7.23932 10.683 7.44874C10.4961 7.66424 10.2203 7.79819 9.88014 7.79819H9.29844V8.09811C9.29844 8.26374 9.16413 8.39802 8.99844 8.39802C8.83275 8.39802 8.69844 8.26374 8.69844 8.09811V7.79819H7.56954C7.40385 7.79819 7.26954 7.66392 7.26954 7.49827C7.26954 7.33264 7.40385 7.19837 7.56954 7.19837H8.69844V6.22363H8.11672C7.7766 6.22363 7.50079 6.08969 7.31386 5.8742C7.1322 5.66477 7.04844 5.3952 7.04844 5.13645C7.04844 4.8777 7.1322 4.60813 7.31386 4.39871Z" fill="#007AFF"/>
<path d="M6.3751 10.041C7.24408 10.585 8.27545 10.8445 9.29812 10.7835C8.1376 12.5088 7.11238 14.3161 6.08206 16.1203C5.91585 16.4115 5.62801 16.5244 5.35585 16.4958C5.0026 16.4586 4.67578 16.1827 4.67578 15.7476V11.3004C4.67578 11.0072 4.84677 10.7409 5.11344 10.6188L6.3751 10.041Z" fill="#007AFF"/>
<path d="M5.81808 9.64103C5.21664 9.13643 4.73698 8.49147 4.42957 7.75659L2.30794 8.44392C1.67412 8.64926 1.60281 9.51717 2.1946 9.82317L4.15866 10.8387C4.2808 10.5074 4.53069 10.2306 4.86324 10.0783L5.81808 9.64103Z" fill="#007AFF"/>
<path d="M8.21103 13.6113C7.81212 14.3041 7.4118 15.0022 7.03906 15.6537L9.30273 14.1758L8.21103 13.6113Z" fill="#007AFF"/>
</svg>
