<svg width="18" height="18" viewBox="0 0 18 18" fill="none" xmlns="http://www.w3.org/2000/svg">
<path d="M16.8865 9.0459C16.8865 13.3884 13.354 16.9209 9.01147 16.9209C5.79847 16.9209 2.93647 14.9994 1.71978 12.026C1.60222 11.738 1.74003 11.4095 2.02747 11.292C2.31434 11.175 2.64341 11.3128 2.76097 11.5996C3.80384 14.1489 6.25691 15.7959 9.01091 15.7959C12.733 15.7959 15.7609 12.768 15.7609 9.0459C15.7609 5.32384 12.733 2.2959 9.01091 2.2959C6.25184 2.2959 3.80834 3.95021 2.77166 6.46459L3.04728 6.21202C3.27622 6.00221 3.63228 6.01796 3.84209 6.2469C4.05191 6.47584 4.03672 6.8319 3.80722 7.04171L2.31209 8.41252C2.20747 8.50815 2.07134 8.56046 1.93184 8.56046C1.89866 8.56046 1.86603 8.55765 1.83284 8.55146C1.66016 8.52052 1.51166 8.4114 1.43178 8.25559L0.617282 6.67384C0.474969 6.39765 0.583532 6.05846 0.859719 5.91615C1.13647 5.77159 1.47509 5.88184 1.61741 6.15859L1.65734 6.23621C2.81891 3.19196 5.72084 1.1709 9.01147 1.1709C13.354 1.1709 16.8865 4.7034 16.8865 9.0459ZM3.93716 9.00034C3.93716 6.20415 6.20347 3.93784 8.99966 3.93784C11.7958 3.93784 14.0622 6.20415 14.0622 9.00034C14.0622 11.7965 11.7958 14.0628 8.99966 14.0628C6.20347 14.0628 3.93716 11.7965 3.93716 9.00034ZM8.43716 9.00034C8.43716 9.17696 8.52041 9.34402 8.66216 9.45034L10.9122 11.1378C11.0134 11.2138 11.1321 11.2503 11.2491 11.2503C11.4201 11.2503 11.5888 11.1727 11.6997 11.0253C11.8864 10.7773 11.8358 10.4246 11.5872 10.2384L9.56216 8.71965V6.1884C9.56216 5.87734 9.31016 5.6259 8.99966 5.6259C8.68916 5.6259 8.43716 5.87734 8.43716 6.1884V9.00034Z" fill="#007AFF"/>
</svg>
