<svg width="18" height="18" viewBox="0 0 18 18" fill="none" xmlns="http://www.w3.org/2000/svg">
<g clip-path="url(#clip0_142_1187)">
<path d="M14.4492 0.308838V3.51569H17.6559L14.4492 0.308838Z" fill="#145BFF"/>
<path d="M13.9219 4.57031C13.6306 4.57031 13.3945 4.3342 13.3945 4.04297V0H5.83594C4.96361 0 4.25391 0.709699 4.25391 1.58203V7.47735C4.42765 7.4616 4.60346 7.45312 4.78125 7.45312C6.57872 7.45312 8.18779 8.27494 9.25263 9.5625H14.9766C15.2678 9.5625 15.5039 9.79861 15.5039 10.0898C15.5039 10.3811 15.2678 10.6172 14.9766 10.6172H9.94739C10.277 11.2604 10.4896 11.973 10.5578 12.7266H14.9766C15.2678 12.7266 15.5039 12.9627 15.5039 13.2539C15.5039 13.5451 15.2678 13.7812 14.9766 13.7812H10.5578C10.4001 15.5229 9.46958 17.0447 8.11259 18H16.3828C17.2551 18 17.9648 17.2903 17.9648 16.418V4.57031H13.9219ZM14.9766 7.45312H7.24219C6.95095 7.45312 6.71484 7.21702 6.71484 6.92578C6.71484 6.63455 6.95095 6.39844 7.24219 6.39844H14.9766C15.2678 6.39844 15.5039 6.63455 15.5039 6.92578C15.5039 7.21702 15.2678 7.45312 14.9766 7.45312Z" fill="#145BFF"/>
<path d="M4.78125 8.50781C2.16425 8.50781 0.0351562 10.6369 0.0351562 13.2539C0.0351562 15.8709 2.16425 18 4.78125 18C7.39825 18 9.52734 15.8709 9.52734 13.2539C9.52734 10.6369 7.39825 8.50781 4.78125 8.50781ZM4.48829 12.7266H5.07424C5.68807 12.7266 6.1875 13.226 6.1875 13.8399V14.4258C6.1875 14.9592 5.81027 15.4061 5.30859 15.514V15.7148C5.30859 16.0061 5.07248 16.2422 4.78125 16.2422C4.49002 16.2422 4.25391 16.0061 4.25391 15.7148V15.514C3.75223 15.4061 3.375 14.9592 3.375 14.4258C3.375 14.1345 3.61111 13.8984 3.90234 13.8984C4.19358 13.8984 4.42969 14.1345 4.42969 14.4258C4.42969 14.4581 4.45598 14.4844 4.48829 14.4844H5.07424C5.10655 14.4844 5.13285 14.4581 5.13285 14.4258V13.8399C5.13285 13.8075 5.10655 13.7812 5.07424 13.7812H4.48829C3.87443 13.7812 3.375 13.2818 3.375 12.668V12.082C3.375 11.5486 3.75223 11.1017 4.25391 10.9938V10.793C4.25391 10.5017 4.49002 10.2656 4.78125 10.2656C5.07248 10.2656 5.30859 10.5017 5.30859 10.793V10.9938C5.81027 11.1017 6.1875 11.5486 6.1875 12.082C6.1875 12.3733 5.95139 12.6094 5.66016 12.6094C5.36892 12.6094 5.13281 12.3733 5.13281 12.082C5.13281 12.0497 5.10652 12.0234 5.07421 12.0234H4.48826C4.45595 12.0234 4.42965 12.0497 4.42965 12.082V12.668C4.42969 12.7003 4.45598 12.7266 4.48829 12.7266Z" fill="#145BFF"/>
</g>
<defs>
<clipPath id="clip0_142_1187">
<rect width="18" height="18" fill="white"/>
</clipPath>
</defs>
</svg>
