<svg width="18" height="18" viewBox="0 0 18 18" fill="none" xmlns="http://www.w3.org/2000/svg">
<path d="M13.8201 4.71526L15.4813 4.17708C16.1326 3.96609 16.7029 4.66609 16.3645 5.26102L11.4951 13.8203C11.296 14.1702 10.8562 14.3005 10.4986 14.1156L8.5166 13.0909C8.59741 12.9508 8.67787 12.8115 8.75771 12.6735L8.75963 12.6702L8.76032 12.6691L8.76062 12.6686L8.76148 12.6673C8.86079 12.519 9.51557 11.5417 10.0997 10.6749C12.3045 10.1752 13.9505 8.20413 13.9505 5.84878C13.9505 5.45875 13.9054 5.07927 13.8201 4.71526Z" fill="#145BFF"/>
<path d="M8.70039 5.62388V4.64917H8.11868C7.94661 4.64917 7.83828 4.71203 7.76912 4.79176C7.69469 4.87756 7.65039 5.00164 7.65039 5.13652C7.65039 5.27142 7.69469 5.39548 7.76912 5.48128C7.83828 5.56102 7.94661 5.62388 8.11868 5.62388H8.70039Z" fill="#145BFF"/>
<path d="M9.2998 6.22363H9.8815C10.0536 6.22363 10.1619 6.28651 10.2311 6.36624C10.3055 6.45204 10.3498 6.57612 10.3498 6.711C10.3498 6.84589 10.3055 6.96996 10.2311 7.05576C10.1619 7.1355 10.0536 7.19836 9.8815 7.19836H9.2998V6.22363Z" fill="#145BFF"/>
<path fill-rule="evenodd" clip-rule="evenodd" d="M13.3504 5.84875C13.3504 3.5138 11.3786 1.5 9.00039 1.5C6.59795 1.5 4.65039 3.447 4.65039 5.84875C4.65039 7.29356 5.35517 8.57379 6.43979 9.36462C7.15817 9.88841 8.04317 10.1975 9.00039 10.1975C11.3408 10.1975 13.3504 8.22674 13.3504 5.84875ZM7.31582 4.39871C7.50275 4.18321 7.77855 4.04927 8.11868 4.04927H8.70039V3.74936C8.70039 3.58371 8.8347 3.44945 9.00039 3.44945C9.16608 3.44945 9.30039 3.58371 9.30039 3.74936V4.04927H10.3211C10.4868 4.04927 10.6211 4.18354 10.6211 4.34917C10.6211 4.51482 10.4868 4.6491 10.3211 4.6491H9.30039V5.62382H9.88209C10.2222 5.62382 10.498 5.75777 10.685 5.97326C10.8666 6.18269 10.9504 6.45225 10.9504 6.711C10.9504 6.96975 10.8666 7.23932 10.685 7.44874C10.498 7.66424 10.2222 7.79819 9.88209 7.79819H9.30039V8.09811C9.30039 8.26374 9.16608 8.39802 9.00039 8.39802C8.8347 8.39802 8.70039 8.26374 8.70039 8.09811V7.79819H7.57149C7.4058 7.79819 7.27149 7.66392 7.27149 7.49827C7.27149 7.33264 7.4058 7.19837 7.57149 7.19837H8.70039V6.22363H8.11868C7.77855 6.22363 7.50275 6.08969 7.31582 5.8742C7.13415 5.66477 7.05039 5.3952 7.05039 5.13645C7.05039 4.8777 7.13415 4.60813 7.31582 4.39871Z" fill="#145BFF"/>
<path d="M6.37705 10.041C7.24603 10.585 8.2774 10.8445 9.30007 10.7835C8.13955 12.5088 7.11433 14.3161 6.08401 16.1203C5.9178 16.4115 5.62996 16.5244 5.3578 16.4958C5.00455 16.4586 4.67773 16.1827 4.67773 15.7476V11.3004C4.67773 11.0072 4.84872 10.7409 5.11539 10.6188L6.37705 10.041Z" fill="#145BFF"/>
<path d="M5.82003 9.64103C5.21859 9.13643 4.73894 8.49147 4.43153 7.75659L2.3099 8.44392C1.67607 8.64926 1.60476 9.51717 2.19656 9.82317L4.16061 10.8387C4.28276 10.5074 4.53264 10.2306 4.86519 10.0783L5.82003 9.64103Z" fill="#145BFF"/>
<path d="M8.21591 13.6111C7.817 14.3039 7.41668 15.002 7.04395 15.6534L9.30761 14.1755L8.21591 13.6111Z" fill="#145BFF"/>
</svg>
