<svg width="18" height="18" viewBox="0 0 18 18" fill="none" xmlns="http://www.w3.org/2000/svg">
<path d="M16.8865 9.04541C16.8865 13.3879 13.354 16.9204 9.01147 16.9204C5.79847 16.9204 2.93647 14.9989 1.71978 12.0255C1.60222 11.7375 1.74003 11.409 2.02747 11.2915C2.31434 11.1745 2.64341 11.3123 2.76097 11.5992C3.80384 14.1484 6.25691 15.7954 9.01091 15.7954C12.733 15.7954 15.7609 12.7675 15.7609 9.04541C15.7609 5.32335 12.733 2.29541 9.01091 2.29541C6.25184 2.29541 3.80834 3.94972 2.77166 6.4641L3.04728 6.21153C3.27622 6.00172 3.63228 6.01747 3.84209 6.24641C4.05191 6.47535 4.03672 6.83141 3.80722 7.04122L2.31209 8.41203C2.20747 8.50766 2.07134 8.55997 1.93184 8.55997C1.89866 8.55997 1.86603 8.55716 1.83284 8.55097C1.66016 8.52003 1.51166 8.41091 1.43178 8.2551L0.617282 6.67335C0.474969 6.39716 0.583532 6.05797 0.859719 5.91566C1.13647 5.7711 1.47509 5.88135 1.61741 6.1581L1.65734 6.23572C2.81891 3.19147 5.72084 1.17041 9.01147 1.17041C13.354 1.17041 16.8865 4.70291 16.8865 9.04541ZM3.93716 8.99985C3.93716 6.20366 6.20347 3.93735 8.99966 3.93735C11.7958 3.93735 14.0622 6.20366 14.0622 8.99985C14.0622 11.796 11.7958 14.0623 8.99966 14.0623C6.20347 14.0623 3.93716 11.796 3.93716 8.99985ZM8.43716 8.99985C8.43716 9.17647 8.52041 9.34353 8.66216 9.44985L10.9122 11.1373C11.0134 11.2133 11.1321 11.2498 11.2491 11.2498C11.4201 11.2498 11.5888 11.1722 11.6997 11.0248C11.8864 10.7768 11.8358 10.4241 11.5872 10.2379L9.56216 8.71916V6.18791C9.56216 5.87685 9.31016 5.62541 8.99966 5.62541C8.68916 5.62541 8.43716 5.87685 8.43716 6.18791V8.99985Z" fill="#145BFF"/>
</svg>
