<svg width="88" height="88" viewBox="0 0 88 88" fill="none" xmlns="http://www.w3.org/2000/svg">
<path d="M0 44C0 19.6995 19.6995 0 44 0C68.3005 0 88 19.6995 88 44C88 68.3005 68.3005 88 44 88C19.6995 88 0 68.3005 0 44Z" fill="#007AFF"/>
<rect x="35" y="21" width="20" height="37" rx="3" fill="#51A4FF"/>
<path d="M38.5 49.5L35 46.5L33 50.5L34 58L41 61V57.5L40 53L38.5 49.5Z" fill="#007AFF"/>
<path d="M58.5 38L56.5 39.5H55L54 38L53.5 36L54.5 35L56.5 34L58 34.5L59 36.5L58.5 38Z" fill="#007AFF"/>
<path d="M58.5 44L56.5 45.5H55L54 44L53.5 42L54.5 41L56.5 40L58 40.5L59 42.5L58.5 44Z" fill="#007AFF"/>
<path d="M58.5 51L56.5 52.5H55L54 51L53.5 49L54.5 48L56.5 47L58 47.5L59 49.5L58.5 51Z" fill="#007AFF"/>
<path d="M56.3512 33.4634C58.8827 33.4687 60.8486 36.616 58.4209 39.2033C58.5154 39.2713 58.6072 39.3366 58.6991 39.4019C60.2457 40.5137 60.5292 42.5852 59.3273 44.0661C58.908 44.582 58.4635 45.0766 57.9963 45.6218C58.1214 45.6911 58.2252 45.7524 58.3317 45.8097C59.9901 46.7095 60.5279 48.8783 59.4218 50.4139C58.9173 51.1138 58.333 51.7643 57.7154 52.3668C57.3574 52.7147 56.8623 52.9213 56.3898 53.2159C56.3525 53.8104 56.3725 54.4996 56.2567 55.1648C55.9412 56.9843 54.3546 58.3613 52.5152 58.3853C49.8359 58.42 47.1566 58.4 44.4772 58.396C43.9249 58.396 43.5801 58.0787 43.5735 57.6082C43.5668 57.1203 43.9222 56.8017 44.5079 56.8017C47.0381 56.7977 49.567 56.8017 52.0973 56.799C53.7903 56.799 54.7513 55.8299 54.7539 54.129C54.7539 53.7971 54.7539 53.4652 54.7539 53.1466C54.6861 53.1053 54.6461 53.0706 54.6009 53.0546C52.3994 52.3335 51.6128 49.5355 53.3351 47.7292C53.7237 47.3213 54.0738 46.8775 54.4638 46.4256C54.3121 46.3363 54.1856 46.2629 54.0592 46.1896C52.3688 45.1952 51.9495 42.9691 53.1767 41.4334C53.6026 40.9002 54.0618 40.395 54.5157 39.8658C54.4904 39.8285 54.4731 39.7819 54.4385 39.7565C52.3408 38.2116 52.3302 35.6442 54.4318 34.0979C54.6754 33.9193 54.7633 33.7473 54.7619 33.4487C54.75 30.3828 54.7566 27.3156 54.7539 24.2496C54.7539 22.5794 53.7836 21.6036 52.1252 21.6023C47.4813 21.6009 42.8388 21.6009 38.1949 21.6023C36.5671 21.6023 35.5821 22.5874 35.5821 24.215C35.5808 31.2146 35.5834 38.2129 35.5741 45.2125C35.5741 45.5471 35.6873 45.7431 35.9415 45.9563C39.249 48.7277 41.1817 52.2668 41.778 56.5404C41.8152 56.8044 41.8525 57.0683 41.8698 57.3336C41.9097 57.9774 41.6528 58.356 41.1617 58.3946C40.6825 58.432 40.3618 58.0574 40.2726 57.4589C40.1395 56.5724 40.0237 55.6753 39.7921 54.8115C38.9163 51.5523 37.1354 48.8823 34.4508 46.8308C34.1113 46.5722 33.9782 46.2683 33.9809 45.8497C33.9916 43.433 34.0062 41.0162 33.9729 38.6008C33.9636 37.8756 33.8851 37.1305 33.6987 36.432C33.3194 35.0177 32.3757 34.3952 30.7905 34.4418C30.7905 34.5964 30.7905 34.7551 30.7905 34.9124C30.7905 35.9455 30.7412 36.9812 30.7998 38.0116C30.9502 40.6163 30.5749 43.1504 29.9466 45.6671C29.6658 46.7948 29.4408 47.9425 29.2771 49.0929C29.0948 50.3766 29.2558 51.651 29.6471 52.8907C30.2528 54.8102 30.8464 56.7337 31.464 58.6479C31.6011 59.0745 31.5731 59.4411 31.3708 59.841C30.117 62.3204 28.8805 64.8104 27.6373 67.2951C27.5628 67.4431 27.4949 67.6044 27.3831 67.7217C27.1169 68.0043 26.7881 68.0883 26.4341 67.8963C26.0667 67.6964 25.927 67.3765 26.0361 66.9712C26.0787 66.8126 26.1666 66.666 26.2411 66.5167C27.3911 64.2092 28.5358 61.8978 29.703 59.5997C29.8774 59.2558 29.8921 58.9638 29.7763 58.6079C29.3277 57.2323 28.9603 55.8273 28.4586 54.4729C27.4803 51.8336 27.4111 49.1876 28.1125 46.4762C28.5158 44.9153 28.8073 43.325 29.1427 41.7454C29.184 41.5521 29.1906 41.3495 29.1906 41.1508C29.1933 38.7514 29.1919 36.352 29.1933 33.9513C29.1933 33.1408 29.3956 32.9209 30.1995 32.8462C31.5465 32.7209 32.8123 32.9275 33.9862 33.8406V33.2314C33.9862 30.2322 33.9836 27.2316 33.9862 24.2323C33.9862 21.7009 35.6806 20.0027 38.2082 20.0013C42.8188 20 47.4281 20 52.0387 20C54.6075 20 56.226 21.5383 56.3538 24.0963C56.3565 24.1417 56.3711 24.187 56.3591 24.1257C56.986 23.8484 57.597 23.4565 58.2625 23.3085C59.5735 23.0153 60.8646 23.6551 61.5421 24.7868C62.2196 25.9172 62.1477 27.3449 61.3105 28.3926C60.625 29.2511 59.8996 30.0775 59.1769 30.9053C58.8415 31.2906 58.3663 31.3332 58.0256 31.0493C57.6635 30.7467 57.6356 30.2735 57.9856 29.8536C58.6139 29.0991 59.2607 28.358 59.8956 27.6088C60.5811 26.801 60.5532 25.8346 59.8304 25.2134C59.1223 24.6055 58.2319 24.7695 57.4812 25.4853C56.5854 26.3385 56.2354 27.2929 56.3259 28.5366C56.431 29.9789 56.3498 31.4345 56.3498 32.8849V33.4607L56.3512 33.4634ZM58.4621 42.0746C58.4581 41.3695 58.0988 40.8229 57.5051 40.5643C56.8969 40.2991 56.2247 40.403 55.7602 40.8936C55.2797 41.4001 54.8192 41.928 54.3893 42.4772C53.9354 43.0557 53.9567 43.8102 54.3866 44.3781C54.8032 44.9299 55.5299 45.2125 56.1622 44.8993C57.2376 44.3674 57.9138 43.4196 58.4329 42.3626C58.4808 42.2652 58.4568 42.1333 58.4621 42.0746ZM55.7722 51.6016C55.9572 51.5177 56.3685 51.4377 56.6214 51.1937C57.1697 50.6659 57.6755 50.082 58.1294 49.4702C58.6059 48.8276 58.4382 47.9172 57.8312 47.4C57.2083 46.8695 56.3192 46.8521 55.7442 47.4293C55.2171 47.9585 54.7287 48.5304 54.2761 49.1249C53.8901 49.6301 53.8928 50.2166 54.1923 50.7738C54.4851 51.3177 54.9669 51.575 55.7722 51.6016ZM57.9297 36.6493C57.9364 35.7762 57.183 35.0323 56.2992 35.0417C55.4048 35.051 54.4505 36.0681 54.4558 37.0039C54.4611 37.861 55.1413 38.5515 56.0011 38.5741C56.9222 38.5981 57.9217 37.5997 57.9284 36.6493H57.9297Z" fill="white"/>
<path d="M43.773 67.991C43.021 67.9976 42.5991 67.4324 42.8387 66.9165C43.3564 65.8008 43.8995 64.6958 44.4945 63.62C44.6156 63.4014 44.9936 63.2561 45.2744 63.2108C45.9612 63.1001 46.6653 63.1041 47.3521 62.9935C48.6432 62.7856 49.6747 62.1311 50.4241 61.05C50.5758 60.8314 50.7143 60.6034 50.8726 60.3901C51.1788 59.9769 51.626 59.8836 52.0027 60.1422C52.3687 60.3928 52.4645 60.8247 52.2116 61.2446C51.1202 63.0628 49.6069 64.2892 47.4559 64.6064C46.9794 64.6771 46.495 64.6971 46.0238 64.7917C45.8334 64.8304 45.5965 64.9664 45.5087 65.1277C45.0947 65.8861 44.7473 66.6819 44.3267 67.4351C44.1817 67.695 43.8915 67.8736 43.7704 67.991H43.773Z" fill="white"/>
<path d="M45.1168 24.8003C44.3847 24.8003 43.6527 24.8056 42.9206 24.7989C42.3323 24.7936 41.9756 24.4857 41.9756 24.0005C41.9756 23.5153 42.3323 23.2047 42.9206 23.202C44.418 23.1967 45.9154 23.1967 47.4128 23.202C47.9997 23.2033 48.3578 23.5153 48.3578 23.9991C48.3578 24.483 47.9984 24.7936 47.4128 24.7976C46.6474 24.8043 45.8821 24.7989 45.1168 24.7989V24.8003Z" fill="white"/>
<path d="M45.2144 53.6038C45.4806 53.6038 45.7481 53.5852 46.013 53.6078C46.4549 53.6452 46.7597 53.9811 46.7597 54.397C46.7597 54.8129 46.4562 55.1661 46.0156 55.1874C45.4513 55.2141 44.8843 55.2141 44.3199 55.1874C43.878 55.1661 43.5746 54.8169 43.5732 54.3996C43.5732 53.9837 43.8767 53.6438 44.3173 53.6078C44.6141 53.5838 44.9162 53.6038 45.2157 53.6025L45.2144 53.6038Z" fill="white"/>
</svg>
