<svg width="18" height="18" viewBox="0 0 18 18" fill="none" xmlns="http://www.w3.org/2000/svg">
<path d="M9 7.26416C10.6892 7.26416 12.0586 5.89478 12.0586 4.20557C12.0586 2.51635 10.6892 1.14697 9 1.14697C7.31079 1.14697 5.94141 2.51635 5.94141 4.20557C5.94141 5.89478 7.31079 7.26416 9 7.26416Z" fill="#145BFF"/>
<path d="M15.1875 7.26416C16.2554 7.26416 17.1211 6.39846 17.1211 5.33057C17.1211 4.26267 16.2554 3.39697 15.1875 3.39697C14.1196 3.39697 13.2539 4.26267 13.2539 5.33057C13.2539 6.39846 14.1196 7.26416 15.1875 7.26416Z" fill="#145BFF"/>
<path d="M2.8125 7.26416C3.88039 7.26416 4.74609 6.39846 4.74609 5.33057C4.74609 4.26267 3.88039 3.39697 2.8125 3.39697C1.74461 3.39697 0.878906 4.26267 0.878906 5.33057C0.878906 6.39846 1.74461 7.26416 2.8125 7.26416Z" fill="#145BFF"/>
<path d="M4.71762 9.00073C3.95648 8.37712 3.26718 8.45967 2.38711 8.45967C1.07086 8.45967 0 9.5242 0 10.8324V14.6718C0 15.2399 0.463711 15.7019 1.03395 15.7019C3.4958 15.7019 3.19922 15.7464 3.19922 15.5957C3.19922 12.8751 2.87698 10.8799 4.71762 9.00073Z" fill="#145BFF"/>
<path d="M9.83742 8.47361C8.30025 8.3454 6.96413 8.47509 5.81168 9.42635C3.88311 10.9711 4.25425 13.0511 4.25425 15.5956C4.25425 16.2688 4.80199 16.8267 5.48543 16.8267C12.9063 16.8267 13.2016 17.0661 13.6417 16.0916C13.786 15.7621 13.7464 15.8668 13.7464 12.7142C13.7464 10.2101 11.5782 8.47361 9.83742 8.47361Z" fill="#145BFF"/>
<path d="M15.6127 8.45958C14.7279 8.45958 14.0423 8.37788 13.2822 9.00064C15.1091 10.8659 14.8006 12.7249 14.8006 15.5956C14.8006 15.7473 14.5544 15.7018 16.929 15.7018C17.5196 15.7018 17.9998 15.2233 17.9998 14.6351V10.8323C17.9998 9.52412 16.929 8.45958 15.6127 8.45958Z" fill="#145BFF"/>
</svg>
