<svg width="18" height="18" viewBox="0 0 18 18" fill="none" xmlns="http://www.w3.org/2000/svg">
<path d="M16.9853 6.37907L16.0802 2.75701C15.9692 2.31201 15.5692 2 15.1102 2H2.89103C2.43202 2 2.03202 2.31201 1.92002 2.75701L1.015 6.37907C1.005 6.41807 1 6.45907 1 6.50007C1 7.8781 2.06502 9.00011 3.37504 9.00011C4.13605 9.00011 4.81506 8.62111 5.25007 8.0331C5.68508 8.62111 6.36409 9.00011 7.1251 9.00011C7.88611 9.00011 8.56512 8.62111 9.00013 8.0331C9.43514 8.62111 10.1131 9.00011 10.8752 9.00011C11.6372 9.00011 12.3152 8.62111 12.7502 8.0331C13.1852 8.62111 13.8632 9.00011 14.6252 9.00011C15.9352 9.00011 17.0003 7.8781 17.0003 6.50007C17.0003 6.45907 16.9953 6.41807 16.9853 6.37907Z" fill="#145BFF"/>
<path d="M14.6252 10.0001C13.9442 10.0001 13.2972 9.79212 12.7502 9.41211C11.6562 10.1731 10.0941 10.1731 9.00011 9.41211C7.9061 10.1731 6.34407 10.1731 5.25005 9.41211C4.70304 9.79212 4.05603 10.0001 3.37502 10.0001C2.88401 10.0001 2.42101 9.88512 2 9.68911V15.0002C2 15.5522 2.44801 16.0002 3.00002 16.0002H7.00008V12.0002H11.0001V16.0002H15.0002C15.5522 16.0002 16.0002 15.5522 16.0002 15.0002V9.68911C15.5792 9.88512 15.1162 10.0001 14.6252 10.0001Z" fill="#145BFF"/>
</svg>
