<svg width="18" height="19" viewBox="0 0 18 19" fill="none" xmlns="http://www.w3.org/2000/svg">
<g clip-path="url(#clip0_142_535)">
<path d="M17.8973 7.09968C17.8093 6.99229 17.6779 6.92961 17.5401 6.92961H15.7882C15.3559 5.78934 14.7927 4.67212 14.1525 4.25039C11.9379 2.79349 6.06368 2.79349 3.84906 4.25039C3.20841 4.67258 2.64749 5.79118 2.21286 6.92961H0.460979C0.321788 6.92961 0.190892 6.99229 0.103782 7.09968C0.0162106 7.20661 -0.0188178 7.3481 0.00975802 7.48407L0.269245 8.74141C0.313491 8.95573 0.50246 9.10874 0.720466 9.10874H1.23944C0.738441 9.68671 0.495547 10.4145 0.492321 11.1427C0.489094 12.0424 0.830621 12.8554 1.45514 13.4306C1.46205 13.4366 1.46897 13.4407 1.47542 13.4467V15.206C1.47542 15.5872 1.78515 15.8973 2.16677 15.8973H3.78269C4.16431 15.8973 4.47404 15.5872 4.47404 15.206V14.499H13.5266V15.206C13.5266 15.5872 13.8363 15.8973 14.2179 15.8973H15.8338C16.2146 15.8973 16.5252 15.5872 16.5252 15.206V13.4813C17.188 12.8743 17.5046 12.0391 17.5088 11.2054C17.5115 10.4523 17.2576 9.69777 16.7271 9.10782H17.2806C17.4995 9.10782 17.6885 8.9548 17.7318 8.74002L17.9918 7.48315C18.0185 7.3481 17.9849 7.20753 17.8973 7.09968ZM4.60816 5.40495C6.37341 4.24302 11.6272 4.24302 13.3915 5.40495C13.7344 5.62987 14.1755 6.53923 14.5797 7.65276H3.42088C3.82417 6.53969 4.26525 5.63079 4.60816 5.40495ZM2.54056 11.316C2.54056 10.5647 3.14987 9.95634 3.90068 9.95634C4.65241 9.95634 5.2608 10.5647 5.2608 11.316C5.2608 12.0673 4.65241 12.6761 3.90068 12.6761C3.14987 12.6761 2.54056 12.0673 2.54056 11.316ZM14.1179 12.6761C13.3671 12.6761 12.7578 12.0673 12.7578 11.316C12.7578 10.5647 13.3671 9.95634 14.1179 9.95634C14.8696 9.95634 15.478 10.5647 15.478 11.316C15.478 12.0673 14.8687 12.6761 14.1179 12.6761Z" fill="#145BFF"/>
</g>
<defs>
<clipPath id="clip0_142_535">
<rect width="18.0005" height="18" fill="white" transform="translate(0 0.527344)"/>
</clipPath>
</defs>
</svg>
