<svg width="18" height="18" viewBox="0 0 18 18" fill="none" xmlns="http://www.w3.org/2000/svg">
<g clip-path="url(#clip0_142_541)">
<path d="M9 0C4.02943 0 0 4.02943 0 9C0 13.9706 4.02943 18 9 18C13.9706 18 18 13.9706 18 9C18 4.02943 13.9706 0 9 0ZM6.32173 2.59369C7.35068 2.16257 8.48566 1.98633 9.60391 2.08392C10.8942 2.1966 12.1142 2.66428 13.1385 3.42545L13.1286 2.77474L14.1832 2.75882L14.2185 5.0991L11.8802 5.31204L11.7846 4.26168L12.416 4.2042C11.5671 3.59898 10.5674 3.22678 9.51216 3.13464C7.6243 2.96979 5.76021 3.73173 4.52542 5.17286L3.72452 4.48661C4.42821 3.66532 5.32631 3.01078 6.32173 2.59369ZM12.2199 6.56388L10.5131 11.4361H9.63893L11.3458 6.56388H12.2199ZM6.13202 10.2258V9.5586L7.7561 7.29833H8.81641L7.34235 9.41379H8.0768V8.79831H9.04402V9.41379H9.58191V10.2258H9.04402V10.9189H8.04575V10.2258H6.13202ZM4.19221 8.05349C3.92843 8.05349 3.69049 8.17246 3.54568 8.40519L2.78536 7.98107C3.05951 7.5259 3.57152 7.22591 4.2853 7.22591C5.11805 7.22591 5.69215 7.6552 5.69215 8.3276C5.69215 8.6793 5.59389 9 5.07663 9.47584L4.3939 10.1069H5.79041V10.9189H2.97158V10.2775L4.32671 9.01034C4.61637 8.74139 4.65775 8.57588 4.65775 8.42586C4.65775 8.19313 4.50257 8.05349 4.19221 8.05349ZM11.6783 15.4063C10.8339 15.7601 9.91814 15.9423 8.99873 15.9423C8.79778 15.9423 8.59669 15.9336 8.39609 15.916C7.10578 15.8034 5.88579 15.3357 4.86158 14.5746L4.87139 15.2252L3.81684 15.2411L3.78148 12.9009L6.11979 12.688L6.21545 13.7383L5.58404 13.7958C6.43289 14.401 7.43259 14.7732 8.48784 14.8654C10.3757 15.0303 12.2398 14.2683 13.4745 12.8271L14.2754 13.5134C13.5718 14.3346 12.6737 14.9892 11.6783 15.4063ZM15.2146 7.93969L13.9371 10.9189H12.8199L14.0405 8.11037H13.0888V8.66897H12.2147V7.29833H15.2146V7.93969Z" fill="#145BFF"/>
</g>
<defs>
<clipPath id="clip0_142_541">
<rect width="18" height="18" fill="white"/>
</clipPath>
</defs>
</svg>
